<?xml version="1.0" encoding="UTF-8"?>
<svg id="Layer_2" data-name="Layer 2" xmlns="http://www.w3.org/2000/svg" viewBox="0 0 222.79 304.06">
  <defs>
    <style>
      .cls-1 {
        fill: #5785c4;
      }

      .cls-2 {
        fill: #80b244;
      }

      .cls-3 {
        fill: #599741;
      }

      .cls-4 {
        fill: #fefcfa;
      }

      .cls-5 {
        fill: #efe4af;
      }

      .cls-6 {
        fill: #e0ddd6;
      }

      .cls-7 {
        fill: #d25227;
      }

      .cls-8 {
        fill: #fcfaf7;
      }

      .cls-9 {
        fill: #5d8fcb;
      }

      .cls-10 {
        fill: #eeece9;
      }

      .cls-11 {
        fill: #eac979;
      }

      .cls-12 {
        fill: #86ba46;
      }

      .cls-13 {
        fill: #95ba4c;
      }

      .cls-14 {
        fill: #bb8d48;
      }

      .cls-15 {
        fill: #507abd;
      }

      .cls-16 {
        fill: #cea763;
      }

      .cls-17 {
        fill: #4970b7;
      }

      .cls-18 {
        fill: #7dc6ee;
      }

      .cls-19 {
        fill: #71b3e2;
      }

      .cls-20 {
        fill: #467939;
      }

      .cls-21 {
        fill: #f0722b;
      }

      .cls-22 {
        fill: #b0cb5b;
      }

      .cls-23 {
        fill: #699940;
      }

      .cls-24 {
        fill: #447738;
      }

      .cls-25 {
        fill: #4367b1;
      }

      .cls-26 {
        fill: #9c2920;
      }

      .cls-27 {
        fill: #f0d394;
      }

      .cls-28 {
        fill: #649ed5;
      }

      .cls-29 {
        fill: #141811;
      }

      .cls-30 {
        fill: #d74432;
      }
    </style>
  </defs>
  <g id="Layer_1-2" data-name="Layer 1">
    <g>
      <path class="cls-29" d="M41.06,284.19c1.97-4.64,5.47-8.14,9.87-10.53,2.59-1.41,7.39-2.64,8.96-5.08.69-1.07,1.6-4.79,1.7-6.1.09-1.24-.37-5.06-.83-6.18-.11-.27-.25-.42-.53-.51-22.48-5.39-40.75-18.33-51.52-38.92-12.37-23.64-12.91-58.37,7.27-78,3.51-3.41,12.18-9.22,17.13-9.07,2.04.06,3.87,2.16,3.48,4.2-.23,1.22-4.56,6.96-5.55,8.77-4.27,7.85-6.1,15.83-4.46,24.75,1.86,10.08,9.23,19.3,18.62,23.35.81-2.72,3.21-4.41,5.46-5.85-4.39-4.23-8.59-8.65-11.95-13.77-4.65-7.08-7.11-12.51-2.03-20.23.5-.77,3.49-4.18,3.52-4.46.01-.18-.69-1.5-.72-2.34-.15-3.4,4.09-6.34,6.54-8.3,9.97-7.95,21.74-14.42,34.51-16.3-.32-6.31-1.18-12.67-2.88-18.77-4.12-3.21-8.04-6.85-10.65-11.45s-3.76-9.37-3.98-14.48c-3.94-2.1-8.02-3.91-11.65-6.54-2.63-1.91-5.37-3.9-4.79-7.56,1.05-6.64,13.37-14.88,19.95-15.27-1.59-4.98-5.65-8.68-8.53-12.91-3.03-4.45-5.41-8.77.29-12.35,6.85-4.3,16.56-4.08,23.83-.99-1.62-6.03-7.39-18.35,3.24-19.24,9.86-.83,21.14,7.29,26.57,15.03,2.47.03,4.89.57,7.23,1.27,9.01-9.53,23.91-6.86,27.8,6.06,1,3.32.8,6.66,1.55,9.88.56,2.41,2.03,4.8,2.47,7.28,6.76-1.17,14.51-1.92,21.12.32,12.57,4.27,16.68,20.09,15.78,32.04-1.16,15.47-20.31,19.08-32.74,20.15,3.13,7.74,9.37,14.19,2.97,22.33-3.77,4.8-7.43,5.37-12.7,7.31-.28.1-.62.11-.66.5.91.16,1.81.5,2.66.85,4.46,1.8,20.42,8.96,22.8,12.28.42.59.78,1.2.78,1.95,1.13-.37,2.19-.26,3.37-.66s6.25-3.7,6.44-4.7c-1.11-4.56.03-9.83,1.75-14.13,1.99-4.98,4.07-6.18,2.86-12.23-.68-3.41-3.5-7.37-2.35-10.65.79-2.25,2.98-3.18,5.2-3.38,11.42-1.02,18.05,10.62,13.38,20.53,1.04-.38,2.18-.62,3.28-.75,9.81-1.16,16.95,1.77,15.95,12.83-.08.82-.76,2.64-.71,3.09.06.53.77,1.04,1.03,1.55,2.18,4.27,2.03,8.32.09,12.67-.26.58-.99,1.25-1.12,1.74-.23.86,0,2-.13,2.98-1.21,8.29-9.42,12.82-17.2,13.21-1.69.09-4.96-.57-6.19-.22-.9.26-5.86,4.13-7.22,4.99-4.48,2.85-12.7,7.69-18.04,7.69h-7.41c1.89,6.47,3.41,13.17,4.16,19.89.19,1.76.44,3.98.52,5.72.09,2.04.14,4.06-.74,5.94,9.42,8.71,18.31,21.33,17.11,34.87-.64,7.23-6.79,13.2-11.69,17.94l-8.84,6.88c1.55.26,3.07.71,4.62.97,8.04,1.36,14.71.68,21.37,6.44,2.77,2.39,8.01,9.75,5.71,13.39-.27.42-1.64,1.39-2.16,1.61-.7.29-3.38.66-3.51.78-.12.11-.12.77-.34,1.09-.24.34-1.29,1.26-1.27,1.46l-.78.52c-.08.01-.18-.02-.26,0-1.71.35-4.14,1.3-5.85,1.3h-4.42c-.27,0-1.33,2-1.43,2.08-.25.19-3.74.93-4.32,1.01-6.4.86-11.97-.65-18.03-2.31-.08-.02-.18.02-.26,0-.47-.13-.02-.33-1.04-.26-.09,0-.17,0-.26,0-.32-.69-1.16-.56-1.69-1.03l-.13.25c-.7-.43-1.02-.55-1.82-.78-.95-.71-2.48-1.25-3.64-1.56-.08-.02-.18.02-.26,0-.51-.46-1.93-1.01-2.6-1.04-.09,0-.17,0-.26,0-2.12-.94-4.76-2-7.02-2.6-.08-.02-.18.02-.26,0-.55-.48-1.4-.75-2.08-1.04-.34-.14-.51-.52-1.04-.52-.08-.28-.31-.37-.52-.52-1.24-.87-2.19-1.62-3.12-2.86-.17-.23-.5-.49-.52-.52-.04-.06.04-.19,0-.26-1.95-3.78-1.39-7.63-.26-11.57,1.03-3.59,3.27-6.8,3.77-10.53-5.02,1.95-10.26,3.43-15.62,4.13-1.75.23-3.93.48-5.67.56-3.15.16-6.35-.1-9.49-.14-1.22,1.78-3.07,4.34-3.36,6.52-.49,3.77.64,7.14,1.02,10.77.02.17-.02.35,0,.52.14,1.3.19,2.59.26,3.9,0,.17,0,.35,0,.52s0,.35,0,.52c.01.43,0,.87,0,1.3-.24,1.86-.65,3.69-1.3,5.46-.09.26-.17.57-.26.78,0,.02-.17.07-.26.26-.03.07.04.19,0,.26-.09.17-.37.54-.52.78-.16.26-.35.52-.52.78-.06.09-.19.16-.26.26s-.33.23-.52.52c-.17.26-.39.51-.52.78-.51.21-.72.65-1.04,1.04-.1.12-.35.33-.52.52l-1.82,1.3c-.07.04-.19-.04-.26,0-.34.18-.49.5-.52.52-.07.04-.19-.04-.26,0-1.55.79-3.16,1.5-4.68,2.34-.08.02-.18-.02-.26,0-3.78.91-6.9,2.08-10.65.26-.66-.32-.69-.56-1.3-.78v-.52s-.65,0-.65,0l-.13.26c-.11-.02-.5-.02-.52,0l-1.3.52c-.08.02-.18-.02-.26,0-5.32,1.01-11.14,1.21-15.85-1.82-.33-.46-.57-1.01-1.04-1.3-.9-.55-1.14-.01-1.95,0-2.91.04-4.8-.19-7.4-1.56-.82-.95-1.76-1.74-2.34-2.86-.06-.12-.24-.2-.26-.26-.03-.07.03-.18,0-.26-.74-2.2-.62-4.24-.26-6.5.01-.08-.02-.18,0-.26.36-.32.45-.85.52-1.3.01-.08,0-.18,0-.26ZM85.5,17.74c.18.58.43,2.37,1.17,2.35,3.27-1.68,6.55-3.51,10.13-4.44l.13-.26,9.49-1.3c-4.28-4.73-10.65-9.04-17.01-10.28-1.94-.38-7.03-.99-7.03,2.08s2.15,8.76,3.13,11.84ZM123.7,17.48c-.82.5-1.43.86-2.08,1.69l1.3,1.17c-.46-.22-3.38.67-3.37.91,1.63,2.08,2.61,4.57,3.11,7.15-.53-.5-.83-1.19-1.3-1.82-3-4.07-6.48-6.75-11.43-8.06-5.41-1.43-11.11-.98-15.59,2.6-2.71,2.17-3.62,4.21-4.94,7.28-.74,1.72-1.66,3.51-1.82,5.46-.34.07-.42-.48-.45-.71-.37-2.42.6-7.51,1.94-9.62.16-.25.27-.38.59-.33l-.39-.51c-1.36.98-2.92,1.63-4.37,2.64-9.58,6.68-13.28,14.85-13.69,26.32,0,.17-.51.03-.56.53-.07.82-.03,2.82.02,3.66.02.29.15,1.43.41,1.42l3.57-1.88.7.05-.97.34c-1.37,2.15-3.09,3.84-4.23,6.17-2.02,4.1-2.49,8.2-2.34,12.74.01.43-.04.88,0,1.3.04.48.37,1.86.52,2.6.35,1.7.69,3.54,1.3,5.2,3.65,9.87,14.17,16.54,22.87,21.58-2.56,0-5.06-.48-7.54-1.04-.25-.12-2.01-1.13-2.08-1.04-.22.88.34,1.65.52,2.34-.07,1.06.04,2.09.26,3.12.06.3.24.45.26.52.03.52-.04,1.05,0,1.56.22,2.86.53,5.75.89,8.6l3.01.5c.08.28.32.21.52.26.08.02.18-.02.26,0,5.32,2.97,10.54,6.17,16.31,8.25,3.55,1.28,8.03,2.5,11.76,2.93,3.09.35,6.27.44,9.36,0,1.83-.26,4.1-.72,5.46-2.08.28-.14.62-.13,1.02-.4,1.69-1.14,3.08-3.53,3.13-5.58-.13-.12-1.92.11-2.42,0-4.11-.99-8.67-1.76-12.91-3.11-.03,0-.19-.16-.52-.26-.08-.02-.18.02-.26,0-.03,0-.19-.16-.52-.26-.08-.02-.18.02-.26,0-.56-.76-1.7-.77-2.34-1.04-.07-.03-.19.03-.26,0-.13-.06-.32-.17-.52-.26-8.59-3.9-13.02-8.3-18.45-15.86-.19-.27-.43-.8-.78-1.3-.05-.86.13-.48.52-.13,3.6,3.28,6.75,6.38,10.91,8.97.16.44.51.59.86.83,4.73,3.12,11.97,6.42,17.59,7.23,6.21,1.87,14.03,1.57,20.16-.51.44-.15.7-.46.89-.53,2.29-.9,3.65-1.42,5.59-3.11,6.99-6.11,3.2-10.64.12-17.42-.35-.78-1.34-3.48-1.69-3.9-.44-.53-2.02-.15-2.73-.26.62.98.73,2.13,1.09,3.21.11.34.43.58.47.69.09.26.17.52.26.78,1.22,3.44,3.11,7.04.63,10.38s-7.67,4.25-11.54,4.44c-10.41.52-21.68-4.66-29.36-11.44-.21-.19-.5-.52-.78-.78-.09-.08-.17-.18-.26-.26-1.02-.97-1.9-2.32-3.12-3.12-2.16-2.69-4.4-5.84-6.24-8.84-2.12-4.54-4.23-9.21-4.68-14.3-.08-.85.06-1.75,0-2.6-2.09-.1-5.99,2.04-6.76,3.9-.74.69-1.47,1.85-1.56,2.86-.49-.06-.27-1.34-.23-1.66.64-4.42,3.36-7.01,7.25-8.74,2.31-.32,4.41-.86,6.76-.26.01,0-.05.2.13.26,2.2.65,4.03,1.61,5.84,3l-6.75-.39c.49,2.33,2.24,4.01,4.03,5.45,2.35,1.89,4.39,2.86,7.14,3.91,4.42,2.27,9.29,3.56,14.03,4.94,7.06,2.05,14.53,3.8,22.09,4.16,2.77.13,6.06.11,8.84,0,.26-.01.52.01.78,0,1.81-.1,3.44-.5,5.2-.78,3-.48,5.4-.84,8.32-1.82,6.25-2.09,12.39-5.4,13.51-12.48.79-4.97-.02-9.77-1.3-14.56-.45-1.68-.61-3.56-1.82-4.94-.98-2.35-1.49-2.87-3.12-4.68-2.44-2.72-4.19-4.05-7.8-5.2-5.94-1.9-12.4-1.4-18.45-.26-.67.08-1.51.43-2.08.52-2.76.43-5.36,1.11-8.06,1.82-3.39.89-6.72,2.08-10.13,2.86-.87.2-1.97.73-2.86.39l7.27-5.2c-.5-.31-.95-.52-1.26-1.07-.82-1.44-1.67-7.6-1.85-9.45-.04-.43.03-.87,0-1.3l-.26-.26c-.02-1.35.3-3.16.78-4.42.7-1.86,1.51-2.5,3.18-3.39.17-.09.15-.43.38-.5,2.83-.81,5.6.97,7.6,2.85-.2-1.2-.46-2.29-1.04-3.38-.18-3.24-5.51-8.06-8.58-8.06-3.71-.69-8.05-.12-10.65,2.86ZM79.26,25.02c.65-.56,1.37-.98,2.01-1.48.21-.17.48,0,.33-.59-1.19-.18-2.14-.92-3.24-1.31-6.04-2.12-13.52-1.73-18.98,1.56-1.76,1.06-1.25,2.91-.38,4.43.98,2.55,5.16,7.1,6.97,9.54.72.97,1.68,2.8,2.36,3.56.62.68.58-.5.79-1.02,2.39-6.02,5.24-10.41,10.15-14.68ZM146.53,40.85c.34-4.28-2.72-13.23-7.43-14.2s-4.91,6.54-4.23,9.56c.77.13.73-1.01,1.18-1.55,1.79-2.15,4.76.92,5.62,2.67.69,1.41.79,3,1.25,4.48l3.61-.96ZM139.06,37.82c0-.74-.6-1.35-1.35-1.35s-1.35.6-1.35,1.35.6,1.35,1.35,1.35,1.35-.6,1.35-1.35ZM51.72,64.28c1.46,1.3,3.25,2.39,4.94,3.38.66.39,6.5,3.66,6.76,3.38-.04-2.46.5-5.3,1.36-7.61.41-1.11,1.58-2.68,1.74-3.71.51-3.22-.42-7.39.53-10.77-4.94-.29-16.79,7.56-17.14,12.38-.11,1.56.84,2.09,1.81,2.96ZM107.59,92.87c9.17,10.01,22.34,17.53,36.38,14.82-.46-1.15-.13-2.34-.29-3.48-.31-2.15-1.45-4.8-2.57-6.66-1.42-2.37-4.52-5.74-7.09-6.81-.86-.36-2.17-.45-3.1-.75-.21-.07-.2-.46-.38-.5-.32-.07-2.98.07-3.86.03-.12,0-.07.41-.3.47-.5.13-1.12.06-1.63.28-.25.36,2.27,2.89,2.6,3.38,1.23,1.81,2.13,4.11,2.6,6.24h-.52c-1.5-3.06-4.49-6.65-7.16-8.83-.71-.58-1.56-.87-2.2-1.31s-1.23-1.07-2-1.51c-4.63-2.63-10.44-4.5-15.15-.96,1.4,2.01,3.04,3.81,4.67,5.59ZM189.18,103.79c.2.85.44,2.39.51,3.25.08,1-.13,2.01,0,2.99-.8,3.81-2.56,5.01-3.64,8.06-2.45,4.65-2.46,10.34-1.04,15.34.46,1.64,1.22,3.1,1.82,4.68-.45.42-3.8-2.02-4.29-2.59-1.68,1.89-3.69,3.39-6.04,4.35-.91.37-1.65.37-2.47.6-.22.06-.18.45-.37.49-1.09.27-4.35-.3-5.45-.73-1.14-.13-3.49,5.77-3.91,6.92-1.11,2.96-2.11,6.33-2.66,9.42-.16.39-.74,1.94-.8,2.2-.2.84-.32,1.72-.21,2.59.07.53,2.06,5.77,2.3,6.02.36.37,3.28.64,4.03.65,1.39,0,2.75-.35,4.04-.54,1.91-.27,3.31-.42,5.2-1.04,5.92-1.95,11.75-6.24,16.63-10.02.12-.31-1.05-1.04-1.29-1.16-1.97-2.29-3.69-4.94-3.9-8.06l3.11,4.03c.82.93,1.85,1.6,2.86,2.2,6.29,3.72,18.55,2.08,21.83-5.2.12-.26.19-.73.26-1.04.02-.07.25-.18.26-.26.23-1.63-.45-2.66-.78-4.16-.17-.02-.37.04-.52,0-3.77-.94-9-1.64-12.73-.26-.52.19-.87.44-1.3.78-2.02,1.61-2.08,3.73-.52,5.72.1.12,0,.42.41.75.52.4,1.54.63,2.19.81.17.13.79.45,1.04.52,1.85.55,3.8.56,5.72.52-.03.02.08.39-.19.52-.49.23-2.29.64-2.93.78-2.11.12-4.18-.14-6.24-.52-.95-.42-1.8-1.05-2.6-1.82-.42-.99-1.08-2.02-1.04-3.12,0-.17-.01-.35,0-.52.05-.6-.03-1.22,0-1.82.26-.75.96-1.6,1.03-2.48.04-.62-.82-.87-1.03-1.16-.36-.51-.94-1.92-1.31-2.2-.34-.25-1.65-.63-2.06-.79l1.17-1.17-.39,1.29,1.04.26c.24-.65-.19-1.2-.26-1.56.08-2.3.3-4.76,1.77-6.64l-.21-.12c-.53-.78-1.26-1.31-1.82-2.08-.63-1.93-1.18-3.91-1.04-5.98.72-2.81,2.13-5.51,4.68-7.02-.13-.71-1.7.25-1.56-.65.21-1.39,1.65-3.67,2.08-5.33.65-2.54.84-5.01,0-7.54s-3.85-6.05-6.66-6.23c-.62-.04-1.17.26-1.78.27-.88.01-3.43-.6-3.5.88-.04.9,2.23,5.41,2.58,6.9ZM202.44,116.01c-3.08,1.06-5.1,2.74-5.42,6.14-.17,1.79-.01,3.3,1.01,4.78.19.28.58.92.9.95,1.25-.42,2.51-.84,3.77-1.21.53-.15,1.11-.4,1.56-.52,3.38-.31,6.76-.39,10.13,0,.52.19,1.06.73,1.81.51,1.03-3.46,1.94-8.88-2.33-10.39-3.11-1.92-8.08-1.41-11.43-.26ZM84.98,123.02c-10.34,0-20.18,4.68-28.72,10.13-4.17,2.66-8.15,5.65-11.82,8.98,10.78,1.45,19.52,8.59,24.43,18.07,1.01,1.94,1.89,3.77,2.21,5.98,5.52-4.52,11.21-8.85,15.6-14.55-.14,2.89-1.47,5.43-2.99,7.79-.38.59-.97,1.16-1.3,1.82-.04.01-.23.2-.26.26-.25.11-.41.28-.52.52-.08.17-.19.34-.26.52-.51.37-1.31.99-1.56,1.56-.05.11.04.37,0,.52-.31,1.19-.41,2.4-.7,3.59-.48,2-2.4,7.5-2.38,9.02,0,.75,1.37,4.04,1.65,5.32.35,1.6.57,3.03.65,4.68.13,2.59-.16,4.29-.52,6.76-.08.52-.2,1.03-.26,1.56-.37.33-.44.84-.52,1.3-.01.08.01.18,0,.26-.45.24-.39.68-.52,1.04-.03.08.03.19,0,.26-.02.04-.2.11-.26.26-.03.07.03.19,0,.26-.03.07-.21.14-.26.26-.11.27-.17.58-.26.78-.13.27-.66.52-.52,1.04.29-.04.57.23.78.26.08.01.18-.02.26,0,.24.45.68.39,1.04.52.08.03.18-.03.26,0,.04.02.12.21.26.26.33.12.7.15,1.04.26,2.87.93,5.58,1.61,8.53,2.26,25.31,5.55,53.4,7.66,77.19-4.38-.88-15.83-5.37-31.24-10.61-46.1-1.58-4.48-3.27-8.98-5.08-13.37-.71-1.73-1.43-3.53-2.46-5.08-.04-.79.28-.18.47.05,4.01,4.84,6.56,10.65,9.4,16.2.07.31.19.53.26.78.03.11.24.2.26.26.03.08-.03.19,0,.26.03.07-.04.2,0,.26.18.32.22.49.52.78l.78,1.82c1.72-6.61,3.3-13.99,7.78-19.33-.13-.75-5.93-3.64-6.99-4.2-5.77-3.04-11.71-5.81-17.68-8.44h-.26c-.06-.1-.15-.22-.26-.26-.07-.03-.18.03-.26,0-.06-.02-.15-.22-.26-.26-.27-.1-.5-.18-.78-.26-.37-.11-.73-.46-1.3-.26.1.84-.07,1.55-.26,2.34-.02.08.02.18,0,.26,0,.03-.16.24-.26.52-.03.08.03.19,0,.26-.01.03-.19.12-.26.26-.03.07.03.18,0,.26-.09.08-.2.16-.26.26-.15.26-.17.51-.26.78-2.4,3.38-5.97,5.69-10.08,6.42-12.67,2.25-24.13-2.91-34.88-8.76-.31-.17-.62-.57-1.04-.78-.17-.09-.34-.18-.52-.26-.07-.03-.19.03-.26,0-.8-.99-2.68-1.46-3.9-1.56-.54-.04-1.28-.04-1.82,0ZM199.06,139.4c.26.28.32.76.9.78l2.86-1.04c.13-.05.15-.13.13-.26,2.63-.58,5.17-.06,7.8,0,1.91.56,3.83,1.2,5.64,2.04l.49-.19c.3-.24.27-.67.37-.8,1.73-2.26,2.27-6.09.52-8.58-.13-.18-1.02-1.19-1.09-1.23-.1-.04-1.66-.27-2.03-.33-3.72-1.44-10.96-.7-14.43,1.29-3.11,1.79-3.58,5.81-1.16,8.33ZM22.87,152.66c1.56-6.8,4.7-12.89,8.84-18.45-.13-.09-1.6.18-1.87.28-3.43,1.27-6.93,3.41-9.82,5.95-1.31,1.15-2.49,2.33-3.64,3.64-6.16,7.07-10.23,16.96-11.69,26.26-.79,5.06-.82,9.8-.52,14.82.74,12.55,3.95,22.55,10.39,33.27.35.59.67,1.24,1.04,1.82,4.95,7.75,10.48,13.61,17.93,18.98,2.92,2.1,5.87,4.09,9.1,5.72,2.1,1.06,4.82,2.29,7.02,3.12,2.03.77,4.18,1.21,6.24,1.82.43.13,3.52,1.45,3.64,1.3,0-.33-.22-1.33-.52-1.3-.94-4.48-1.79-8.69-2.08-13.26-.03-.43.02-.87,0-1.3-.15-3.66-.14-6.94.54-10.51.88-4.63,2.49-9.18,3.88-13.67-.91.24-2.43-.72-2.73.26l-.65-.52v.52s-.52,0-.52,0v-.52s-.52.52-.52.52c.11-.85-.74-.44-1.3-.52-1.49-.21-2.93-.58-4.42-.78-.26-.11-.51-.39-.78-.52-3.18-1.53-3.42-2.09-5.98-4.16-1.78-2.46-2.37-5.02-2.08-8.06.23-.44,1.75-2.34,1.56-2.6-7.14-2.68-12.88-7.79-16.74-14.32-2.93-4.95-4.37-9.93-5.35-15.58v-.78c0-4.25.08-7.27,1.04-11.44ZM73.28,178.39c-2.43-7.14-7.04-14.19-12.21-19.63.95-.3,2.08-.36,2.99.13-.09-1.32-1.42-2.8-2.3-3.8-3.04-3.43-9.27-8.64-13.87-9.39-2.48-.4-3.23.64-4.74,2.41-2.1,2.47-4.21,6-4.84,9.14-.11.57-.38,1.15-.38,1.23,0,1.08.38,2.81.8,3.79.22,1.52,1.08,3.08,1.82,4.42,2.12,3.84,5.09,7.69,8.06,10.92,1,1.09,2.1,2.34,3.38,3.12,1.74,1.75,3.28,3.28,5.46,4.55-1.6.88-2.21,3.78-2.52,5.53-.51,2.85-.18,5.74-.34,8.63-2.7-1.95-1.42-4.14-5.52-3.57-3.15.44-4.6,2.63-3.32,5.65,1.2,2.82,4.64,4.82,7.54,5.46,1.23.27,2.5.24,3.74.49l3.8-.49c5.24-1.17,8.61-3.66,11.43-8.06s3.17-7.44,2.86-12.48c-.16-2.53-1-5.64-1.82-8.06ZM74.84,172.42l.78-4.94-2.56,1.98c-.05.26,1.35,2.7,1.78,2.96ZM51.46,188.79c-1.36.59-2.19,1.17-2.86,2.6-.14.3-.6,1.74-.52,1.82l3.9.78c.11-1.31.47-2.58.52-3.9,0-.09,0-.17,0-.26l.78-1.56c-.91-.28-1.3.29-1.82.52ZM63.67,217.13c-1.53,4.48-2.64,9.28-2.86,14.04-.12,2.59-.01,5.23.26,7.8.36,3.45,1.29,6.78,2.08,10.14s1.51,6.9,2.34,10.22c.05.21.51.17.52.33.07,1.39-.64,3.79-.7,5.24-.01.31.16.46.17.59-.78,1-.94,2.43-1.51,3.55-.97,1.9-2.56,2.99-4.2,4.24-2.87,1.23-5.9,2.28-8.58,3.9-4.22,2.55-8.55,7.81-7.02,13,.19.64.88,1.86,1.38,2.27.34.28.7.2.96.33,1.73.88,3.51,1.17,5.46.52.14-.05.43.12.54-.15.42-1.5.74-3.06,1.27-4.53,1.79-4.89,5.91-9.06,10.97-10.47.25-.07.78-.43.72.07-2.55,1.68-5,4.09-6.49,6.76-1.47,1.27-1.86,3.18-2.34,4.94-.33,1.2-.83,2.55-.78,4.02s.26,1.57,1.3,2.22c2.77,1.73,7.75,1.62,10.91.78.7-.19.94-.46,1.5-.71,1.13-.49,1.49.4,1.09-1.37-.05-6.49,4.01-14.41,10.78-15.86-.32,1.45-2.07,2.27-2.89,3.21-2.89,3.31-4.99,8.19-4.51,12.65.36,3.32,3.58,3.53,6.24,3.12,3.99-.61,9.46-3.36,11.69-6.76.28-.43.55-1.08.78-1.56.09-.18.18-.32.26-.52.25-.59.34-.96.52-1.56.02-.08-.02-.18,0-.26.05-.17.17-.37.26-.78.02-.08-.02-.18,0-.26.11-.6.2-.86.26-1.56.19-2.15-.01-3.56-.26-5.72-.51-4.46-1.69-8.49-.52-13,2.7-6.56,7.77-11.49,10.91-18.2.4-.86.95-1.71,1.3-2.6,2.38-6.01,2.93-10.55,2.08-16.9-.46-3.42-.93-6.91-2.86-9.88-.87-2.18-1.95-4.3-3.64-5.98-.28-.55-.74-1.41-1.19-1.8-1.08-.95-5.7-1.49-7.39-1.84-4.8-.98-9.64-1.81-14.29-3.38-.08-.03-.18.03-.26,0-.3-.65-1.17-.72-1.82-.78-.56-.27-1.46-1.28-2.42-1.01-.99,1.09-2.04,2.16-3.18,3.08-.82.66-2.33,1.32-2.97,1.97-1.37,1.39-3.24,6.44-3.92,8.43ZM161.38,205.95c-.62.13-1.04.36-1.56.52-1.74.53-3.45,1.06-5.2,1.56-.96.27-1.89.53-2.86.78-11.27,2.95-22.08,4.17-33.78,3.64-.05,0-.49-.23-1.04-.26-3.72-.2-7.56-.51-11.17-.78-.69-.05-1.39-.17-2.08-.26-.19.67.31.93.52,1.3,1.05,1.84,2.35,3.59,3.38,5.46,2.38,5.2,3.38,10.15,3.64,15.86.03.66.28,1.85.27,2.19,0,.16-.47.12-.52.32-.12.48.06,1.16-.03,1.75-.98,6.04-2.74,10.23-5.68,15.5-.4.72-1.7,2.1-1.56,2.86-.49.18-.86.27-.91,1.04,1.99-.07,3.99.09,5.97,0s3.93-.54,5.85-.78c3.59-.45,6.61-.77,10.13-1.82,1.74-.52,3.78-1.36,5.46-2.08,5.39-2.3,10.29-5.34,14.55-9.36.53,0,.72-.33,1.03-.66,1.17-1.2,2.5-2.37,3.39-3.76,3.33-3.49,7.2-8.93,8.84-13.52.09-.26.17-.52.26-.78,2.19-5.15,4.47-12.57,4.42-18.2,0-.43,0-.87,0-1.3l-1.3.78ZM165.8,209.85c-.3,2.17-.57,4.09-1.04,6.24s-.92,3.54-1.56,5.46c-1.11,3.32-2.49,7.06-4.16,10.14-3.38,6.24-8.99,12.41-14.58,16.74-2.01,1.55-7.31,4.51-8.55,6.14-.72.94-1,2.7-1.3,3.9-.03.08-.16.27-.26.52-.05.13.05.39,0,.52-1.92,4.91-5,10.14-4.04,15.61.62,3.51,6.19,5.82,9.24,6.74.14.04.38-.04.52,0,.07.02.17.23.26.26.37.11.87.13,1.3.26.08.02.18-.02.26,0l5.46,2.08h.26l.52.26h.26l.26.26h.26c.28.45.81.53,1.3.52,2.87,1.53,6.17,2.72,9.36,3.38,1.83.76,4.37,1.15,6.37,1.3.63.05,1.7.19,2.21-.26,1.22.06,5.53.24,6.11-.79.16-.28.07-.55.13-.77.62-2.3-.12-5.23-1.3-7.28-1.71-2.96-4.55-4.94-7.62-6.29l-2.77-.99c3.16-.29,5.62.39,8.29,1.97,4.23,2.5,5.48,5.42,6.78,9.99.12.42.2.85.29,1.27.76.04,1.55.07,2.31.03,1.12-.06,6.08-.69,6.45-1.74.09-.46.06-.92.04-1.38-.14-3.87-3.78-8.33-6.88-10.4-1.85-1.24-3.94-1.75-5.59-3.11,6.35.04,12.21,4.36,14.55,10.14.24.6.63,1.06.53,1.81.26.26,2.76-.36,3.11-.64.52-.42.15-.75,0-1.17-.81-4.57-5.22-8.66-9.36-10.4-2.21-.93-4.87-1.65-7.28-1.56-4.07-.75-8.82-1.5-12.99-2.08-.93-.13-2.74-.52-3.51-.52h-4.94l-2.99.52c-.13-.04-.36.03-.52,0,0-.04-.3-.22-.26-.38l.26-.28c.23-.18.58.13.72.06,9.22-4.39,18.76-10.86,25-19.16,1.6-2.13,3.14-4.14,3.9-6.76.3-1.03.45-2.05.52-3.12.01-.17,0-.35,0-.52.12-3.14-.39-6.1-1.3-9.1-.05-.17-.25-.24-.26-.26-.05-.14.05-.38,0-.52-2.1-6.12-6.72-12.76-11.43-17.16-.67-.62-1.34-1.27-2.08-1.82.16.84-.16,1.58-.26,2.34Z"/>
      <path class="cls-6" d="M127.34,278.74c.04.07-.04.2,0,.26l.52.52c.92,1.24,1.88,1.99,3.12,2.86l.27.78c.15,0,.23-.26.25-.26.53,0,.7.38,1.04.52.25,1.31,1.26.84,2.08,1.04.08.02.18-.02.26,0-.13.64.3.55.71.71,1.14.46,2.53,1.06,3.71,1.11l-.26.78,1.45-.28c.8.95.91.27,1.41.28.09,0,.17,0,.26,0-.3.49,1.66,1.16,2.01,1.23.31.06.56-.2.59-.19.08.02.18-.02.26,0,.3,1.3,2.66,1.28,3.64,1.56.8.23,1.12.35,1.82.78.02.01-.1.36.19.51.52.28,1.18.27,1.63.27.09,0,.17,0,.26,0l.26.78.78-.52c.08.02.18-.02.26,0,.46,1.14,2.19,1.82,3.24,1.3l.14.78c.44.11.16-.38.28-.47.32-.24,1.14.4,1.65.5,2.5.49,8.86,1.48,11.15,1.21.45-.05.76-.57,1.14-.67.08-.02,1.64-.06,1.73-.05.31.04-.04.63.41.52-.47-1.28,1.85-.82,2.34-1.16.3-.2.22-.63.26-.66.56-.45,1.56-.58,1.56-1.82,1.34.89,2.41.34,3.75.25.36-.03.77.29,1.03.28.16,0,.11-.43.27-.47.29-.08,1.43.07,1.8.2.5-1.17.82-.36,1.72-.62.17-.05,1.74-.74,1.55-1.2.08-.02.18.01.26,0,.32-.05.71.04,1.04,0,.14-.54-.26-.48-.26-.52-.02-.2,1.03-1.12,1.27-1.46.22-.32.21-.98.34-1.09.13-.12,2.81-.49,3.51-.78.52-.22,1.89-1.19,2.16-1.61,3.04.71,11.35,3.78,7.71,7.97-4.46,5.12-27.74,8.52-34.89,9.42-25.29,3.16-52.23,3.16-77.67,2.11-1.39-.06-2.78.03-4.17,0l-7.66-.53c-.03-1.1,1.69-.65,2.4-.85.65-.18,2.09-.69,2.54-1.23.08-.02.18.02.26,0,2.12-.51,2.05-.55,4.02-1.57.54-.28.37-.46.4.26l.26-1.04c.07-.04.19.04.26,0l.52-.52c.07-.04.19.04.26,0,.45-.24,1.26-.42,1.49-.59.2-.15.2-.56.33-.71.17-.19.42-.4.52-.52,1.24.17.83-.61,1.04-1.04.13-.27.35-.52.52-.78.72.13.42-.24.52-.52.03-.07.2-.16.26-.26.17-.26.36-.52.52-.78h.52s0-.78,0-.78c.04-.07-.03-.19,0-.26l.26-.26c.09-.21.17-.52.26-.78l1.08-2.17c.56-1.18.22-2.32.22-3.29,0-.43.01-.87,0-1.3h.52s0-.39,0-.39l-.52-.13c0-.17,0-.35,0-.52.46-.79.29-2.1.26-3-.02-.5.27-1.04-.52-.9-.02-.17.02-.35,0-.52l29.62.26Z"/>
      <path class="cls-6" d="M41.06,284.19c0,.08.01.18,0,.26-.53.31-.43.82-.52,1.3-.02.08.01.18,0,.26-1.02,1.7-.95,4.93.26,6.5.03.08-.03.19,0,.26l.26.26c.58,1.12,1.52,1.91,2.34,2.86.03.04-.12.31.16.54.6.48,2.05.53,2.43,1.28-3.15-.74-13.63-3.56-14.83-6.61-1.83-4.63,6.75-6.56,9.77-7.68.24.06.13.55.13.78Z"/>
      <path class="cls-6" d="M71.73,300.05s.65.21.78.26c.61.22.64.46,1.3.78l.26,1.3c-.09,0-.17,0-.26,0l-.39-.26-.13.26-7.27-.78,2.93-.58c.3.05.61-.43.7-.45.08-.02.18.02.26,0,.3-.08.79.1,1.12,0,.3-.09.15-.5.18-.52.02-.02.41-.02.52,0Z"/>
      <path class="cls-6" d="M53.79,298.75c.2.27.72.13.52.78-1.58.25-2.96-.41-4.42-.78l.26-.52h-.39s-.13.52-.13.52c-.51-.13-1.15-.01-1.56-.52.05,0,.2-.23.41-.24,1.35-.1,3.06,0,4.27-.54.47.29.71.84,1.04,1.3Z"/>
      <path class="cls-10" d="M84.46,300.83c-.45.54-1.88,1.05-2.54,1.23-.7.2-2.43-.25-2.4.85l-3.38-.26-.52-.52v.52c-.62-.05-1.2-.23-1.56-.26l-.26-1.3c3.75,1.82,6.87.65,10.65-.26Z"/>
      <path class="cls-10" d="M52.75,297.45c-1.21.53-2.92.44-4.27.54-.21.02-.37.24-.41.24-.17.01-.35,0-.52,0l-.13-.52-.13.52c-.3-.05-.47-.25-.52-.26-.1-.31-.34-.65-.52-.26-.08-.02-.18.02-.26,0-.39-.75-1.84-.8-2.43-1.28-.28-.23-.13-.5-.16-.54,2.6,1.37,4.5,1.6,7.4,1.56.82-.01,1.05-.55,1.95,0Z"/>
      <path class="cls-6" d="M76.14,302.65c-.17,0-.35.01-.52,0v-.52s.52.52.52.52Z"/>
      <path class="cls-10" d="M49.64,298.75l.13-.52h.39s-.26.52-.26.52c-.08-.02-.18.02-.26,0Z"/>
      <path class="cls-6" d="M47.56,298.23c-.08,0-.18.01-.26,0l.13-.52.13.52Z"/>
      <polygon class="cls-10" points="73.8 302.39 73.28 302.39 73.42 302.13 73.8 302.39"/>
      <path class="cls-6" d="M46.78,297.97c-.16-.03-.35-.22-.52-.26.18-.39.42-.05.52.26Z"/>
      <path class="cls-8" d="M84.98,123.02c-1.76.14-3.99.5-5.8.83-.37.07-1.41.06-1.47.47l13.42,1.54,1.39-.24c10.74,5.85,22.21,11.02,34.88,8.76,4.11-.73,7.68-3.04,10.08-6.42-.09.27-.5.81-.13,1.04l5.07-4.29-.52-.65c5.97,2.63,11.9,5.4,17.68,8.44,1.06.56,6.87,3.45,6.99,4.2-4.48,5.34-6.06,12.72-7.78,19.33l-.78-1.82c.1.1.74.57.78.52l.74-3.46-3.07-3.3c.22,1.27.24,2.64.52,3.9-2.84-5.55-5.39-11.36-9.4-16.2-.19-.23-.51-.84-.47-.05,1.03,1.56,1.74,3.35,2.46,5.08,1.81,4.39,3.5,8.89,5.08,13.37,5.24,14.87,9.73,30.28,10.61,46.1-23.79,12.04-51.87,9.93-77.19,4.38-2.94-.64-5.66-1.33-8.53-2.26.6-3.4,1.37-6.8,1.56-10.27.33-6.21-.76-14.98,1.1-20.73,1.21-3.73,3.57-7.43,5-11.11,1.95-5.03,3.02-10.19,3.25-15.59-.6-.16-.43.14-.59.33-5.66,6.61-11.96,11.4-20.15,14.66-.38.15-.63.17-.82.6-4.9-9.47-13.65-16.62-24.43-18.07,3.67-3.32,7.65-6.31,11.82-8.98,8.54-5.45,18.38-10.14,28.72-10.13ZM117.98,145.64c-.81.51-1.72,1.14-2.34,1.82-.14.15-.44.24-.52.52-.81.59-1.18,1.13-1.82,1.82-9.68,10.37-6.83,28.67,3.9,37.17,2.26,1.79,4.89,3.53,7.8,3.9l1.25.45c.44.14.94.02,1.35.07.07,0,.29.25.63.27,1.99.12,4.32-.14,6.13-1.05,3.45-.72,4.73-1.56,7.28-3.9.09-.08.17-.17.26-.26s.17-.17.26-.26.18-.17.26-.26c.24-.26.53-.48.78-.78,3.23-3.85,4.81-7.45,5.46-12.48.02-.17-.02-.35,0-.52.04-.34-.03-.7,0-1.04.6-7.72-.61-14.67-5.72-20.8-.2-.24-.37-.36-.52-.52-.08-.09-.18-.17-.26-.26-1.21-1.29-3.92-4.02-5.46-4.68-1.77-.91-4.2-2.1-6.24-2.08-4.65-.35-8.56.38-12.47,2.86Z"/>
      <path class="cls-23" d="M124.74,16.96c.06.45-.64.71.13.78,4.27.39,7.1-.82,11.39,1.34.84.42,5.31,4.18,5.89,3.6l.26-1.04c-.07.49.37.76.52,1.04.58,1.09.84,2.17,1.04,3.38-2.01-1.88-4.77-3.66-7.6-2.85-.24.07-.22.41-.38.5-1.67.89-2.48,1.53-3.18,3.39-.66-.15-.55.33-.65.77-.33,1.43-.44,2.85-.39,4.31.02.5-.27,1.04.52.9.18,1.85,1.04,8.02,1.85,9.45.31.55.76.77,1.26,1.07l-7.27,5.2c.89.34,1.99-.19,2.86-.39l1.04.39-.52.39c.3,0,.6.03.9,0,11.91-1.11,33.14-8.25,41.46,4.55.69,1.07.57,2.68,1.56,3.51l2.34,3.64c.07-2.33-.09-4.69,0-7.02l1.04-.52-.26,1.04h1.3s-.52-2.86-.52-2.86l1.3,1.82c.64,1.52,1.14,3.33,1.56,4.94.58,2.22,1.14,4.87,1.3,7.15.16,2.42-.33,5.06.26,7.41-1.12,7.08-7.27,10.39-13.51,12.48-.18-.43-.83-.05-1.14.03-2.43.6-4.7,1.13-7.18,1.53-1.42.23-2.86.38-4.29.53-.49.05-1.05-.32-.91.51-.26.01-.52-.01-.78,0-.27-.43-.99-.26-1.43-.26-1.99-.02-3.99-.02-5.98,0-.44,0-1.16-.17-1.43.26-7.56-.36-15.03-2.11-22.09-4.16.61-.28-1.02-.57-1.1-.59-4.31-1.15-8.92-2.82-12.93-4.35-2.75-1.04-4.79-2.02-7.14-3.91-1.8-1.45-3.54-3.12-4.03-5.45l6.75.39c-1.82-1.39-3.65-2.34-5.84-3-.18-.05-.12-.25-.13-.26.64-.33-.86-.48-.94-.49-2.32-.14-3.74-.17-5.82.75-3.88,1.72-6.6,4.32-7.25,8.74-.05.32-.26,1.6.23,1.66.1-1,.82-2.17,1.56-2.86-.12.29-.17.71-.26,1.04-1.18,4.21-.27,8.16,1.04,12.22-.56.26-.06.8.04,1.13.9,2.92,2.31,5.33,3.6,7.97.3.05.24-.26.26-.26.28.05,2.93,4.04,3.38,4.68.35.5.59,1.03.78,1.3-.33-.49-.84.17-.94.35-.65,1.2-.2,2.26-2.25,1.93-.82-.13-1.26-.67-1.78-.84-.24-.08-1.43-.2-1.53-.25-.48-.23-.39-.9-.6-1.11-.16-.16-.8-.24-1.16-.53-8.43-6.82-15.82-15.57-20.26-25.5-.23-.52.09-.7-.85-.57-.04-.42.01-.87,0-1.3.88.11.36-.26.37-.69.11-2.84.16-5.53.89-8.31.22-.85.52-2.69,1.59-2.44v-.25c-1.05.14,0-.61-.52-1.04,1.14-2.32,2.86-4.01,4.23-6.17l.97-.34-.7-.05-3.57,1.88c-.26,0-.39-1.14-.41-1.42-.05-.84-.08-2.84-.02-3.66.04-.5.55-.36.56-.53.41-11.47,4.1-19.64,13.69-26.32,1.46-1.02,3.01-1.67,4.37-2.64l.39.51c-.32-.05-.43.07-.59.33-1.33,2.11-2.31,7.2-1.94,9.62.04.23.11.78.45.71.16-1.95,1.09-3.74,1.82-5.46.52.4.63.19,1.05-.11.98-.71,2.08-2.54,3.25-3.52,8.35-7.01,18.91-3.5,26.79,2.31l.88-.5c.46.63.77,1.32,1.3,1.82-.5-2.58-1.48-5.07-3.11-7.15,0-.24,2.91-1.14,3.37-.91l-1.3-1.17c.65-.83,1.25-1.19,2.08-1.69.27-.16.67-.29,1.04-.52ZM100.05,30.48c-3.24,2.29-4.62,6.15-4.94,9.88-.79-.15-.5.4-.52.9-.06,1.64.02,3.47.26,5.08.11.76.39,1.9.6,2.65.25.91.99,1.74.98,2.67-.02,1-1.75-.26-1.57.92-2.19.19-3.12,1.08-4.94,1.56-.32.08-1.08-.25-1.04.26,1.47.54,3.19.32,4.82.26.5-.02,1.04.27.9-.52.26,0,.52-.01.78,0-.14.83.42.46.91.51.77.08,1.5.06,2.28.29.22.07.33.94,1.5-.02,3.31.85,5.93,2.26,8.76,4.1,1.29.84,3.35,3.19,1.89-.2,2.13.19,3.53-.96,4.94-2.34,1.62-1.6,3.1-3.93,3.38-6.24.63-.87.04-2.27.26-3.21.06-.24.61-.08.53-.55-.51-2.89-.87-6.07-2.04-8.9-1.39-3.37-4.71-7.64-8.36-8.66l-1.98-.75c-2.26-.27-4.26.25-6.25,1.23-.13.06-1.59.77-1.12,1.09ZM150.98,51.8c-2.3-.01-3.55.33-5.2,2.08-.33.35-.71.7-.79,1.2-.09.54.26.8.27.88.01.17-.02.36,0,.52-1.01-.22-.16,1.2-.04,1.47.57,1.35.78,1.64,1.6,2.17.31.2.14.6.52.52-.05-1.62.04-3.03.78-4.42,2.06-2,4.46-.66,6.66.22.33.13.88.58,1.13.04,1.07.62,1.88,1.61,2.86,2.34-.35-1.96-1.24-3.98-2.6-5.46-.25-.27-.49-.23-.52-.26-.09-.08-.17-.19-.26-.26-.12-.09-.19-.43-.53-.63-.55-.33-2.3-.99-2.85-.41-.17-.02-.35,0-.52,0v-.52s-.39,0-.39,0l-.13.52ZM150.39,57.83c-.67.2-.86,1.29-.83,1.91.1,2.17,2.75,5.05,4.96,5.3s1.86-.93,1.33-2.63-3.58-5.14-5.46-4.58Z"/>
      <path class="cls-23" d="M20.01,140.44c2.89-2.54,6.39-4.68,9.82-5.95.28-.1,1.75-.38,1.87-.28-4.13,5.56-7.28,11.66-8.84,18.45-.76-.16-.47.38-.59.82-.95,3.53-1.05,7.88-.45,11.39.98,5.64,2.42,10.63,5.35,15.58,3.86,6.53,9.6,11.64,16.74,14.32.19.26-1.32,2.15-1.56,2.6-.32.62-.8,1.43-.73,2.15.13,1.33,1.49,5.2,2.54,6.05.31.25.25-.15.26-.14,2.56,2.07,2.79,2.63,5.98,4.16-1.71,2.15-2.34,5.05-2.79,7.73-.63,3.76-.42,6.71-.57,10.35-.03.78-.26,1.5-.26,2.28-1.19.69-2.26,1.68-3.39,2.52-4.13-1.49-8.56-3.55-12.21-5.98-.09-.06-.16-.19-.26-.26-9.96-6.73-17.96-16.49-22.61-27.55-1.3-3.09-2.38-5.79-3.12-9.1.54-1.17-.32-2.78-.49-4.06-.1-.81.02-1.63-.03-2.44-.06-.93-.43-2.25-.26-3.22.13-.71,1.12-1.19,0-1.62l-.02-.5c.9-.78.03-.96.02-2.07,0-1.19.63-3,.69-4.49.02-.48.42-.97-.43-.84,1.46-9.29,5.54-19.18,11.69-26.26l2.51-2.17,1.13-1.47Z"/>
      <path class="cls-23" d="M63.67,217.13c.2.11.22.78.53.38,2.03-2.65,4.35-5,7.03-6.99,2.96-1.9,5.91-2.8,9.46-2.48,6.4.57,14.1,4.66,20.3,5.43.21.03.41.04.62.02-.17-.35-.34-.7-.52-1.04,1.68,1.68,2.77,3.8,3.64,5.98,1.23,3.11,2.19,6.55,2.6,9.88.17,1.42.46,3.12.28,4.57-.08.61-.54.24-.55.5.83.16.58,1.54.52,2.34-.21,2.75-1.13,5.76-2.04,8.36-.12.33-.58.88-.03,1.13-.35.89-.9,1.74-1.3,2.6l-.3-.24c-7.98,8.99-21.72,14.48-33.04,8.24-3.05-1.68-4.37-3.73-6.68-6.04-.32-.32-.48-.68-1.03-.67-.79-3.36-1.71-6.69-2.08-10.14l.27-1.7-.53-6.1c.22-4.76,1.33-9.55,2.86-14.04Z"/>
      <path class="cls-27" d="M162.16,206.99c-.67,5.99-1.87,11.86-3.9,17.68-.09.26-.17.52-.26.78l-.52-.38c-.2.46-.45.91-.78,1.29-10.72,12.19-30.93,13.25-45.21,7.41.07-1.78.11-3.29-.15-4.97-.62-4.07-1.78-7.32-3.75-10.89-1.03-1.87-2.33-3.61-3.38-5.46l1.24.44c12.56,2.32,25.2,2.4,37.8.26,6.51-1.11,13.12-3.03,18.92-6.16Z"/>
      <path class="cls-23" d="M198.54,101.97l.27,4.04c.17,1.11-.88,2.49-.27,3.5-.43,1.66-1.87,3.94-2.08,5.33-.14.9,1.43-.06,1.56.65-2.55,1.52-3.95,4.21-4.68,7.02-.58,2.24-.34,4.09,1.04,5.98.56.77,1.29,1.3,1.82,2.08-1.33,1.28-2.06,4.38-1.83,6.14.05.39.26.57.27.62.07.36.5.91.26,1.56l-1.04-.26.39-1.29-1.17,1.17c.42.16,1.73.54,2.06.79.37.27.95,1.69,1.31,2.2-2.22.99-2.96,3.71-2.43,5.94.4,1.7,2.02,2.44.83,4.29-.41.64-1.36.74-1.25,1.72-1.02-.6-2.05-1.28-2.86-2.2l-3.11-4.03c.21,3.12,1.92,5.77,3.9,8.06-.44-.23-.79-.57-1.29-.4-.57.2-2.43,1.73-3.2,2.22-6.1,3.94-13.78,6.88-20.9,3.42-2.23-1.09-3.35-2.25-3.99-4.72-.3-.06-.42.53-.52.78.55-3.09,1.56-6.47,2.66-9.42.43-1.14,2.78-7.04,3.91-6.92,1.1.44,4.37,1,5.45.73.19-.05.16-.43.37-.49.83-.23,1.56-.23,2.47-.6,2.35-.96,4.36-2.45,6.04-4.35.49.57,3.84,3.01,4.29,2.59-.6-1.58-1.35-3.04-1.82-4.68.49-.25.17-.88.09-1.26-1.03-4.9-.72-9.37.95-14.08,1.08-3.05,2.84-4.25,3.64-8.06.34-1.61.58-3.21.09-4.9l-.61-1.34c-.35-1.49-2.63-6.01-2.58-6.9.07-1.47,2.62-.86,3.5-.88.61,0,1.17-.31,1.78-.27,2.8.18,5.83,3.73,6.66,6.23Z"/>
      <path class="cls-23" d="M65.49,265.48c.03.26-.08.58.01.84,4.5,3.9,10.76,4.16,16.48,4.09,1.45-.02,2.33-.58,3.96.21.26.13,3.73,2.81,3.97,3.06.47.5,1.94,2.04,2.34,2.57.66.87.46,2,1.3,2.74l.52,5.72c-.06.7-.15.96-.26,1.56.12-.47-.15-.82-.54-.36-.48.55-.97,1.63-1.54,2.3-4.05,4.74-10.34,9.22-16.88,7.68-.16-.33-.22-.65-.3-1l-.48-.04c-.48-4.45,1.62-9.34,4.51-12.65.82-.94,2.57-1.76,2.89-3.21-6.77,1.45-10.83,9.37-10.78,15.86-.03-.13-.45-.5-.28-.88l.28-3.8c-1.82,4.86-9.54,5.76-14.04,5.2-.04.03.48.75.52.78-1.04-.65-1.26-.8-1.3-2.22s.46-2.82.78-4.02l2.34-4.94c1.49-2.67,3.95-5.08,6.49-6.76.06-.5-.47-.14-.72-.07-5.07,1.41-9.18,5.59-10.97,10.47l-4.84,1.27c-1.56.21-3.29-.29-4.77.29-1.53-5.19,2.8-10.45,7.02-13,.15.51.79.01,1.05-.12,2.46-1.26,5.49-2.22,7.53-3.78,1.64-1.26,3.23-2.34,4.2-4.24.57-1.13.74-2.55,1.51-3.55Z"/>
      <path class="cls-24" d="M159.04,231.68c.78-.15.5.4.52.9.08,2.52.09,5.3.01,7.82-.1,3.32-.91,7.99-.54,11.17.07.58.19,1.03.65,1.42h4.68c3.2,0,9.27-4.38,11.83-6.36.39-.3.55-.79.51.12-6.24,8.29-15.78,14.76-25,19.16-.15.07-.5-.23-.72-.06l-.26.28c-.04.16.26.34.26.38.01.26,0,.52,0,.77-5.1,1.12-9.45,5.03-6.68,10.59,9.08,5.39,18.56,12.67,29.81,10.47h.26c-.06.22.03.49-.13.77-.58,1.03-4.89.85-6.11.79-2.65-.12-5.97-.51-8.58-1.04-3.19-.66-6.49-1.85-9.36-3.38l-1.3-.52h-.26l-.26-.26h-.26l-.52-.26h-.26l-3.86-1.73c-.48-.27-1.13-.21-1.6-.35-.08-.02-.18.02-.26,0-.25-.39-1.03-.8-1.3-.26-.09-.03-.19-.24-.26-.26l-.38-.26-.14.26c-3.05-.93-8.62-3.24-9.24-6.74-.96-5.47,2.12-10.7,4.04-15.61l.26-.38-.26-.14c.1-.25.23-.44.26-.52.01-.04.38-.19.54-.62.34-.86.57-2.33.76-3.28,1.24-1.62,6.54-4.58,8.55-6.14,5.59-4.33,11.2-10.5,14.58-16.74Z"/>
      <path class="cls-27" d="M94.85,73.11c.27,5.11,2.3,10,4.94,14.3,1.84,3,4.08,6.15,6.24,8.84.04.05-.07.33.07.45l3.05,2.67c.09.08.17.18.26.26l.78.78c7.69,6.78,18.96,11.96,29.36,11.44.5.44,1.58.31,2.21.25,5.62-.48,13.02-4.31,10.54-11.05l-1.83-4.02c-.09-.26-.17-.52-.26-.78h.26l2.22.78.12-.52h.26c3.08,6.78,6.87,11.32-.12,17.42-1.94,1.69-3.31,2.21-5.59,3.11.05,0,.27-.35.52-.26.03-.42.13-.59-.38-.51-.62.09-1.7.66-2.52.86-4.16,1.01-8.39,1.57-12.69,1.48-1.96-.16-3.79-.26-5.72-.52-3.53-1.08-6.92-2.1-10.31-3.59-2.89-1.27-5.72-2.79-8.4-4.46-4.17-2.59-7.31-5.69-10.91-8.97-.39-.35-.57-.73-.52.13-.45-.64-3.09-4.63-3.38-4.68-1.48-2.87-2.9-5.76-3.9-8.84-1.31-4.06-2.22-8.01-1.04-12.22.81.53,1.3-.6,1.84-.89,1.52-.79,3.29-.98,4.91-1.45Z"/>
      <path class="cls-23" d="M151.5,266.52c1.24.41,5.83-.08,7.68-.01,1.2.04,2.65.68,3.76.01,4.18.58,8.92,1.33,12.99,2.08,2.08.38,4.11.9,6.13,1.54.29.09.98.43,1.15.02,4.13,1.74,8.54,5.83,9.36,10.4-.08-.22-.28-.45-.3-.73l-.34-.08c-.89.27-2.48-.08-3,.81-2.34-5.78-8.21-10.09-14.55-10.14,1.65,1.36,3.75,1.87,5.59,3.11,3.1,2.07,6.74,6.53,6.88,10.4h-.26c-2.59.97-5.23,1.08-7.95,1.28-.52.04-.64.04-.88.54-1.3-4.57-2.54-7.48-6.78-9.99-2.68-1.58-5.14-2.26-8.29-1.97l2.77.99c3.07,1.35,5.91,3.33,7.62,6.29l.93,3.1c.16,1.45.57,2.73.11,4.18-11.25,2.2-20.73-5.08-29.81-10.47-2.77-5.57,1.57-9.47,6.68-10.59,0-.25.02-.52,0-.77.16.03.39-.04.52,0ZM191.39,278.74v.26c.17-.09.17-.17,0-.26ZM191.39,279.26v.26c.17-.09.17-.17,0-.26Z"/>
      <path class="cls-16" d="M158,225.45c-1.63,4.58-5.5,10.03-8.84,13.52-1.37,1.43-2.98,3.06-4.42,4.42-4.26,4.01-9.17,7.06-14.55,9.36-.25-.54-.8-.09-1.14.03-1.33.49-2.7.93-4,1.46-.49.2-.83-.18-.32.59-3.52,1.05-6.54,1.37-10.13,1.82-.25-.43-.52-.94-.54-.03-1.88-.73-5,1.3-6.35-.5-.42,1.08-1.5.82-2.35.27l-.38.52-.13-.52h-.26s-.26.53-.26.53l-.65-.53c.11-.04.37.09.48-.03l1.08-2.83c2.95-5.27,4.71-9.46,5.68-15.5.09-.58-.08-1.27.03-1.75.05-.2.52-.16.52-.32.02-.34-.24-1.53-.27-2.19h.26c14.28,5.83,34.49,4.77,45.21-7.41.33-.38.58-.83.78-1.29l.52.38Z"/>
      <path class="cls-23" d="M179.57,226.49l1.56,9.88c0,.17.01.35,0,.52-.62.59-.83,2.43-.52,3.12-.75,2.62-2.3,4.63-3.9,6.76.04-.91-.13-.42-.51-.12-2.56,1.98-8.63,6.36-11.83,6.36h-4.68c-.46-.4-.59-.84-.65-1.42-.37-3.18.44-7.85.54-11.17.08-2.52.07-5.3-.01-7.82-.02-.5.26-1.04-.52-.9,1.67-3.08,3.05-6.82,4.16-10.14.75.49.4.2.59-.32.32-.86.62-1.91.84-2.8.16-.62.61-1.8.13-2.34.47-2.15.74-4.07,1.04-6.24.69-.16,1.1.28,1.68.53l.66-1.05c4.72,4.4,9.33,11.03,11.43,17.16Z"/>
      <path class="cls-24" d="M67.83,75.97c.94-.14.62.04.85.57,4.44,9.92,11.83,18.68,20.26,25.5.36.29,1,.37,1.16.53.21.21.12.88.6,1.11.1.05,1.29.17,1.53.25.52.17.96.71,1.78.84,2.05.34,1.6-.72,2.25-1.93.1-.19.61-.84.94-.35,5.43,7.56,9.86,11.96,18.45,15.86l.52.26c.07.03.19-.03.26,0,.42.82,1.53.8,2.34,1.04.08.02.18-.02.26,0l.52.26c.08.02.18-.02.26,0l.52.26c4.24,1.35,8.8,2.13,12.91,3.11.5.12,2.29-.12,2.42,0-.05,2.05-1.44,4.44-3.13,5.58-.4.27-.74.26-1.02.4-2.31,1.19-3.25.93-5.84.78-10.17-.62-18.27-3.31-26.24-9.62-1.2-.95-2.85-2.3-3.52-3.63-.42-.29-.99.87-1.29,1.18-1.07,1.1-2.16,2.19-3.31,3.21-.98-.2-1.65-.71-2.67-1.01-.08-.02-.18.02-.26,0l-.52-.26-3.01-.5c-.37-2.85-.67-5.74-.89-8.6.67-.48.11-1.17,0-1.56-.02-.07-.2-.22-.26-.52.62-.88-.02-2.2-.26-3.12-.17-.69-.74-1.46-.52-2.34.07-.09,1.82.92,2.08,1.04,2.24,1.03,4.61,1.45,7.15,1.3.39-.02.95.21.39-.26-8.7-5.03-19.22-11.7-22.87-21.58.5-.23.11-.83,0-1.18-.41-1.34-.62-2.78-1.31-4.02-.15-.74-.48-2.12-.52-2.6Z"/>
      <path class="cls-8" d="M97.71,278.48c-.38-3.63-1.51-7-1.02-10.77.29-2.18,2.14-4.74,3.36-6.52,3.14.04,6.34.3,9.49.14,1.74-.09,3.93-.34,5.67-.56,5.36-.7,10.6-2.18,15.62-4.13-.5,3.73-2.74,6.93-3.77,10.53-1.13,3.94-1.69,7.79.26,11.57l-29.62-.26Z"/>
      <path class="cls-20" d="M104.21,247.8c-3.14,6.7-8.21,11.63-10.91,18.2-1.93,4.68-.27,8.23.26,13-.84-.74-.64-1.87-1.3-2.74-.4-.53-1.87-2.08-2.34-2.57-.24-.25-3.71-2.93-3.97-3.06-1.63-.79-2.51-.23-3.96-.21-5.73.07-11.98-.19-16.48-4.09-.09-.26.02-.58-.01-.84-.01-.13-.19-.28-.17-.59.06-1.45.77-3.85.7-5.24,0-.16-.47-.12-.52-.33-.84-3.33-1.55-6.85-2.34-10.22.55,0,.72.35,1.03.67,2.32,2.31,3.64,4.36,6.68,6.04,11.32,6.24,25.06.74,33.04-8.24l.3.24Z"/>
      <path class="cls-30" d="M120.06,89.75c.64.44,1.49.72,2.2,1.31,2.66,2.18,5.66,5.77,7.16,8.83h.52c-.47-2.13-1.37-4.43-2.6-6.24,1.49.69,3.16.7,4.72,1.12,1.29.34,3.16.98,4.5,1.46,1.25.44,2.58,1.26,3.86,1.63.58.17.24.36.69-.31,1.12,1.86,2.26,4.51,2.57,6.66.16,1.14-.17,2.33.29,3.48-14.04,2.71-27.21-4.81-36.38-14.82l12.47-3.12Z"/>
      <path class="cls-16" d="M15.59,220.25c.45-.38.62-.07.91.25,3.2,3.46,7.12,7.56,10.65,10.66.37.32,2.38,1.99,2.6,2.09.55.24.35-.34.32-.58-.21-2.25-.35-4.39.84-6.43.1.07.17.2.26.26-.05,2.77-.13,5.41.78,8.06-.37-.28-1.35-.45-1.69-1.04-.37,1.06,1.85,4.19,2.85,4.16s-.38-2.27-.64-2.61c4.3,2.3,7.55-.09,10.91-2.6,2.45.88,5,1.31,7.28,2.08v.78s.78,0,.78,0v-.25c-.22.02-.35-.17-.52-.26,1.8.17,3.35.53,5.2.52l-.78.52h1.04c.24,4.86,1.36,9.57,2.35,14.3.12-.03.22-.26.25-.26.3-.03.51.97.52,1.3-.12.15-3.21-1.17-3.64-1.3.11.04,1.15.16,1.04-.26-.35-.04-.82-.06-1.12-.25-.55-.34-3.25-4.99-3.44-5.73l-1.29-8.06c-.39.26-.51.49-.63.93-.75,2.63.49,8.8,2.36,10.86.53.58,1.4.92,1.79,1.35.25.27-.03.61,0,.62.14.08.58-.04.84.08.34.15.42.45.45.46-2.06-.61-4.21-1.05-6.24-1.82.15-.64-.35-.51-.73-.69-1.71-.81-3.47-1.59-5.2-2.35-.31-.13-.84-.69-1.08-.09-3.22-1.63-6.17-3.62-9.1-5.72h.78s0-.39,0-.39l-.65-.65-.13,1.04c-7.45-5.37-12.98-11.22-17.93-18.98Z"/>
      <path class="cls-24" d="M51.2,210.11c1.24.53,3,1.5,4.42.78.56.08,1.42-.33,1.3.52l.51-.52v.52s.52,0,.52,0v-.52s.65.52.65.52c.3-.98,1.82-.02,2.73-.26-1.39,4.48-3,9.03-3.88,13.67-.68,3.57-.69,6.85-.54,10.51h-.26c-.17,0-.35,0-.52,0-1.85.01-3.4-.35-5.2-.52-.08-.05-.16-.23-.26-.26-2.28-.77-4.82-1.2-7.28-2.08,1.13-.84,2.2-1.83,3.39-2.52,0-.78.23-1.5.26-2.28.15-3.64-.06-6.59.57-10.35.45-2.69,1.08-5.58,2.79-7.73.27.13.52.41.78.52Z"/>
      <path class="cls-6" d="M68.87,160.2c.19-.44.44-.45.82-.6,8.19-3.26,14.49-8.05,20.15-14.66.16-.19,0-.49.59-.33-.23,5.4-1.3,10.56-3.25,15.59-1.43,3.69-3.79,7.39-5,11.11-1.87,5.75-.77,14.52-1.1,20.73-.19,3.47-.95,6.87-1.56,10.27-.34-.11-.71-.14-1.04-.26l-.26-.26c-.08-.03-.18.03-.26,0v-.52c-.33-.05-.73.06-1.04,0-.08-.02-.18.01-.26,0l-.26-1.3c.09-.2.15-.51.26-.78l.26-.26c.03-.07-.03-.19,0-.26l.26-.26c.03-.07-.03-.18,0-.26h.52c.04-.34-.05-.71,0-1.04.01-.08-.01-.18,0-.26,1,.19.49-1.06.52-1.3.06-.53.18-1.04.26-1.56.69.21.7-1.09.75-1.46.2-1.67.35-3.62.29-5.3-.01-.34-.3-.76-.28-1.14l.54-.28c-.49-1-1.16-3.35-1.31-4.44-.06-.43.27-1.06.23-1.12-.09-.12-.84-.68-.97-1.01-.64-1.61-.23-1.43-.07-2.58.06-.41-.23-.73-.22-.97,0-.16.42-.15.43-.2.18-.62-.1-2.07.87-2.03-.87-.82,0-1.4.19-2.27.34-1.53.49-3.65.91-5.07.1-.32.36-.51.6-.71l-.66-.78c.04-.15-.05-.41,0-.52,1.12.26.61-.51.83-.73.44-.45.23.52.73-.83.07-.18.18-.35.26-.52h.52c.04-.16-.05-.43,0-.52.03-.06.22-.25.26-.26.18-.06.68.09.77-.01.15-.19-.25-1.32.78-1.3l-.25-.51c1.52-2.37,2.85-4.9,2.99-7.79-4.39,5.7-10.07,10.04-15.6,14.55-.32-2.21-1.2-4.03-2.21-5.98Z"/>
      <path class="cls-23" d="M213.87,116.27c4.26,1.51,3.36,6.93,2.33,10.39-.75.22-1.28-.32-1.81-.51-2.75-1.01-7.3-.78-10.13,0-.45.12-1.03.37-1.56.52-1.03-.67-2.51.62-3.55.71-.9.07-.78-.95-1.12-.45-1.02-1.48-1.18-2.98-1.01-4.78.32-3.4,2.35-5.08,5.42-6.14,1.23.39,2.74-.4,4.03-.52,2.33-.21,5.2,0,7.4.78Z"/>
      <path class="cls-7" d="M58.99,27.62s.28.02.24-.12c-.18-.56-.59-1.05-.49-1.7.28.07.45.23.78.15,1.28-.33,3.23-1.5,4.8-1.97,5.45-1.65,8.85-1.22,14.17.4.43.13.92-.06.78.64-4.91,4.26-7.76,8.66-10.15,14.68-.21.52-.17,1.7-.79,1.02-.68-.76-1.64-2.59-2.36-3.56-1.81-2.43-5.99-6.98-6.97-9.54Z"/>
      <path class="cls-23" d="M199.06,139.4c-1.02-2.12-1.75-4.74-.22-6.85.75-1.03,1.08-.56,1.46-.78,2-1.15,4.29-2,6.72-2.22.94-.08,4.38-.15,5.16-.02.3.05.48.13.66.38l-.39.39.65-.78c.52.36,1.07.18,1.56.26.36.06,1.93.29,2.03.33.08.03.96,1.04,1.09,1.23.99,2.86.83,5.87-.52,8.58-.1.13-.06.56-.37.8l-.49.19c-1.81-.84-3.73-1.48-5.64-2.04-2.73-.8-5.2-.71-8.06-.25.03.12.26.21.26.25.01.12,0,.2-.13.26l-2.86,1.04c-.58-.01-.64-.5-.9-.78Z"/>
      <path class="cls-27" d="M14.55,218.43c.56-1-.54-1.35-.84-1.88-.4-.72-.72-1.44-1.06-2.08-3.65-6.97-6.17-14.25-7.46-22.03.78-.14.41.21.55.61.42,1.24.72,2.52,1.23,3.72.18.42.76,1.97,1.34,1.91,4.65,11.07,12.65,20.82,22.61,27.55-1.19,2.04-1.06,4.18-.84,6.43.02.24.23.82-.32.58-.23-.1-2.24-1.77-2.6-2.09-3.53-3.1-7.45-7.2-10.65-10.66-.3-.32-.47-.63-.91-.25-.37-.58-.68-1.23-1.04-1.82Z"/>
      <path class="cls-7" d="M51.72,64.28c.54-.37-.61-.38-.76-.96-.22-.85,4.06-4.91,4.91-5.67,2.81-2.51,6.32-5.39,10.15-5.73.5.36,0,2.42-.02,3.12-.02,1.22.28,3.67.13,4.6-.14.86-1.52,3.05-1.87,4.07-.75,2.18-1.13,4.54-1.37,6.82-1.87-.65-3.5-1.77-5.23-2.69-.2-.11-.92-.61-1-.16-1.68-.99-3.48-2.08-4.94-3.38Z"/>
      <path class="cls-7" d="M85.5,17.74c.45-.4.11-.76,0-1.16-.9-3.6-2.7-7.09-2.61-10.88.2-.86,4.17-.26,5-.1,5.44,1.05,11,4.83,15.02,8.5l-6.24,1.05.26.25-.13.26c-3.59.93-6.86,2.75-10.13,4.44-.74.01-.99-1.78-1.17-2.35Z"/>
      <path class="cls-24" d="M191.52,155.26c.25.13,1.41.85,1.29,1.16-4.88,3.78-10.7,8.07-16.63,10.02-.22-.48-.85-.11-1.2-.03-1.32.31-2.77.54-4,1.07-1.29.18-2.65.54-4.04.54-.75,0-3.67-.28-4.03-.65-.24-.25-2.23-5.49-2.3-6.02-.11-.87.01-1.75.21-2.59.06-.25.65-1.8.8-2.2.1-.25.22-.83.52-.78.64,2.47,1.76,3.64,3.99,4.72,7.12,3.46,14.8.52,20.9-3.42.77-.5,2.63-2.03,3.2-2.22.49-.17.84.17,1.29.4Z"/>
      <path class="cls-13" d="M169.69,43.48c3.61,1.15,5.35,2.48,7.8,5.2-.37.11-.52.4-.52.78-4.3-1.01-2.41,5.74-1.56,7.8-.99-.83-.86-2.45-1.56-3.51-8.32-12.8-29.55-5.66-41.46-4.55-.3.03-.6,0-.9,0l.52-.39-1.04-.39c3.41-.78,6.75-1.97,10.13-2.86.26.51.86.17,1.24.08,2.31-.58,4.6-1.26,6.96-1.62l-.15-.27c.57-.09,1.41-.44,2.08-.52,5.35-.65,11.83-.76,17.26.29.41.08.8.38,1.19-.03Z"/>
      <path class="cls-23" d="M88.62,120.17c1.02.3,1.69.8,2.67,1.01,1.15-1.02,2.24-2.11,3.31-3.21.29-.3.87-1.47,1.29-1.18.67,1.33,2.32,2.68,3.52,3.63,7.97,6.31,16.07,9,26.24,9.62,2.59.16,3.53.41,5.84-.78-1.35,1.36-3.63,1.82-5.46,2.08-.65-.76-2.15,0-2.73,0h-4.16c-.49,0-1.84-.75-2.47,0-3.73-.42-8.21-1.64-11.76-2.93-5.76-2.08-10.99-5.29-16.31-8.25Z"/>
      <path class="cls-23" d="M201.92,142.52c1.04.54,3.53-.77,4.36-.19.09.06.15,1.23.74-.08l7.63.52c.14.04.35-.02.52,0,.33,1.49,1.01,2.53.78,4.16-.24-.02-.37.18-.52.26-4.11,2.22-8.5,3.69-13.25,2.86-.06.29.3.35.52.52-.65-.18-1.67-.41-2.19-.81-.42-.33-.31-.63-.41-.75-1.04-2.01-.81-3.92.52-5.72.43-.34.78-.59,1.3-.78Z"/>
      <path class="cls-23" d="M215.43,148.24l-.21-.16.21-.88h.26c-.07.31-.14.78-.26,1.04Z"/>
      <path class="cls-16" d="M162.42,206.47c-.3.04-.24.3-.26.52-5.79,3.14-12.41,5.06-18.92,6.16-12.6,2.14-25.24,2.06-37.8-.26l-1.24-.44c-.21-.37-.7-.63-.52-1.3.69.09,1.39.21,2.08.26,1.41.39,3.09.64,4.55.78,13.72,1.32,27.76.84,41.09-2.83.54-.15.85.22.35-.55.97-.25,1.9-.51,2.86-.78.26.5.87.18,1.25.08,1.03-.28,2.13-.67,3.16-1,.07-.02,1.47-.42.79-.64.52-.16.94-.39,1.56-.52.35-.08.68-.04,1.04-.26v.78Z"/>
      <path class="cls-20" d="M76.14,204.65c.67.33,1.08.54,1.82.78.08.03.18-.03.26,0,3.97,1.74,8.65,2.83,12.93,3.58.41.07,1.11.26,1.36-.2,1.68.34,6.31.89,7.39,1.84.45.39.91,1.25,1.19,1.8.18.34.35.69.52,1.04-.21.02-.41,0-.62-.02-6.2-.77-13.9-4.86-20.3-5.43-3.55-.32-6.5.58-9.46,2.48-2.67,1.99-5,4.34-7.03,6.99-.31.4-.33-.26-.53-.38.68-1.99,2.55-7.04,3.92-8.43.64-.65,2.15-1.31,2.97-1.97,1.14-.92,2.19-2,3.18-3.08.95-.28,1.86.74,2.42,1.01Z"/>
      <path class="cls-8" d="M146.53,40.85l-3.61.96c-.46-1.48-.56-3.07-1.25-4.48-.86-1.75-3.83-4.82-5.62-2.67-.45.54-.41,1.68-1.18,1.55-.69-3.02-.67-10.58,4.23-9.56s7.77,9.92,7.43,14.2Z"/>
      <path class="cls-13" d="M109.93,18.52c4.95,1.31,8.44,3.99,11.43,8.06l-.88.5c-7.87-5.82-18.44-9.32-26.79-2.31-1.16.97-2.27,2.8-3.25,3.52-.42.31-.53.52-1.05.11,1.31-3.07,2.23-5.11,4.94-7.28l3.57-1.76c3.74-1.45,6.9-1.41,10.77-.74.44.08.86.34,1.25-.1Z"/>
      <path class="cls-24" d="M215.95,146.94c-.01.08-.24.19-.26.26h-.26c.15-.08.28-.28.52-.26Z"/>
      <path class="cls-24" d="M196.46,141.48c.2.29,1.07.53,1.03,1.16-.07.89-.77,1.73-1.03,2.48-.19.55-.62,1.28,0,1.82-.01.17,0,.35,0,.52,0,.03-.26.22-.25.6.04,1.04.57,1.83,1.29,2.52.8.77,1.65,1.4,2.6,1.82,2.19.97,3.95,1.01,6.24.52.64-.14,2.44-.56,2.93-.78.27-.12.16-.49.19-.52.1-.09.62.21.52-.26l-6.24-.26c-.25-.07-.87-.39-1.04-.52-.22-.16-.57-.22-.52-.52,4.75.82,9.14-.64,13.25-2.86l-.21.88.21.16c-3.28,7.28-15.54,8.92-21.83,5.2-.11-.98.84-1.08,1.25-1.72,1.19-1.85-.43-2.59-.83-4.29-.52-2.23.21-4.95,2.43-5.94Z"/>
      <path class="cls-26" d="M120.06,89.75l-12.47,3.12c-1.63-1.78-3.27-3.58-4.67-5.59,4.71-3.54,10.52-1.67,15.15.96.77.44,1.36,1.07,2,1.51Z"/>
      <path class="cls-21" d="M51.72,64.28c-.97-.87-1.92-1.4-1.81-2.96.35-4.81,12.2-12.67,17.14-12.38-.95,3.38-.03,7.55-.53,10.77-.16,1.03-1.33,2.6-1.74,3.71-.86,2.31-1.4,5.15-1.36,7.61-.25.28-6.09-2.99-6.76-3.38.08-.44.81.06,1,.16,1.73.92,3.36,2.04,5.23,2.69.24-2.28.62-4.65,1.37-6.82.35-1.02,1.73-3.21,1.87-4.07.16-.92-.15-3.38-.13-4.6.01-.7.52-2.76.02-3.12-3.83.35-7.34,3.23-10.15,5.73-.85.76-5.13,4.82-4.91,5.67.15.58,1.3.59.76.96Z"/>
      <path class="cls-21" d="M85.5,17.74c-.98-3.07-3.13-8.84-3.13-11.84s5.09-2.46,7.03-2.08c6.36,1.24,12.73,5.55,17.01,10.28l-9.49,1.3-.26-.25,6.24-1.05c-4.02-3.67-9.58-7.45-15.02-8.5-.83-.16-4.8-.77-5,.1-.08,3.79,1.71,7.28,2.61,10.88.1.41.44.77,0,1.16Z"/>
      <path class="cls-21" d="M58.99,27.62c-.87-1.52-1.38-3.37.38-4.43,5.46-3.29,12.94-3.68,18.98-1.56,1.1.39,2.06,1.13,3.24,1.31.15.6-.11.43-.33.59-.64.5-1.36.92-2.01,1.48.15-.7-.35-.51-.78-.64-5.33-1.63-8.72-2.06-14.17-.4-1.57.48-3.52,1.64-4.8,1.97-.32.08-.5-.08-.78-.15-.1.64.32,1.14.49,1.7.05.15-.24.11-.24.12Z"/>
      <path class="cls-26" d="M127.34,93.65c-.33-.49-2.85-3.02-2.6-3.38.51-.22,1.13-.14,1.63-.28.23-.06.18-.48.3-.47.88.04,3.54-.1,3.86-.03.18.04.17.43.38.5.93.3,2.24.39,3.1.75,2.57,1.07,5.67,4.44,7.09,6.81-.45.67-.11.47-.69.31-1.28-.37-2.61-1.19-3.86-1.63-1.34-.47-3.21-1.11-4.5-1.46-1.56-.42-3.23-.43-4.72-1.12Z"/>
      <path class="cls-13" d="M134.35,14.62c3.07,0,8.39,4.82,8.58,8.06-.15-.28-.59-.55-.52-1.04l-.26,1.04c-.58.58-5.06-3.17-5.89-3.6-4.3-2.17-7.12-.95-11.39-1.34-.76-.07-.07-.34-.13-.78.5-.31.77-.66,1.11-.84,2.7-1.47,5.64-1.5,8.51-1.5Z"/>
      <path class="cls-20" d="M72.24,198.93c-2.82,4.39-6.19,6.89-11.43,8.06h-7.54c-2.89-.64-6.34-2.64-7.54-5.46,1.03-.42,1.64.96,2.6,1.43.88.44,3.04,1.15,4.05,1.41,6.86,1.79,15.18-.69,19.86-5.96-.04.13.03.36,0,.52Z"/>
      <path class="cls-20" d="M72.24,198.41l.26-.52c.09.27-.22.42-.26.52Z"/>
      <path class="cls-20" d="M74.84,295.89c6.54,1.54,12.83-2.94,16.88-7.68.57-.67,1.07-1.74,1.54-2.3.4-.46.66-.11.54.36-.02.08.02.18,0,.26l-.26.78c-.02.08.02.18,0,.26-.33.31-1.07,1.31-.52,1.56-.08.2-.17.34-.26.52l-1.03,1.43.25.13c-2.24,3.4-7.7,6.15-11.69,6.76-1.38-.69-3.99.29-5.07-1.05-.28-.35-.25-.74-.39-1.03Z"/>
      <path class="cls-24" d="M70.69,294.85c.4,1.77.04.89-1.09,1.37-.57.24-.8.52-1.5.71-1.28-.44-3.22.04-4.57.24l-.36-.5-.15.53c-1-.31-1.96-.17-3.02-.36-.57-.1-2.41-.47-2.81-.7-.04-.02-.56-.75-.52-.78,4.49.56,12.22-.34,14.04-5.2l-.28,3.8c-.17.38.25.75.28.88Z"/>
      <path class="cls-20" d="M53.79,288.61c-.54,1.46-.85,3.03-1.27,4.53-.11.28-.41.11-.54.15-.68-.47-1.58.04-2.46,0s-2.04-.48-3-.52c-.26-.13-.62-.06-.96-.33-.5-.41-1.19-1.62-1.38-2.27,1.48-.58,3.22-.08,4.77-.29l4.84-1.27Z"/>
      <path class="cls-6" d="M86.8,123.02c-.16.82.41.43.87.54,1.09.28,1.99.59,3.03,1.01.07.03.19-.03.26,0l.39.51.13-.26c.42.21.73.61,1.04.78l-1.39.24-13.42-1.54c.06-.41,1.1-.4,1.47-.47,1.81-.33,4.04-.69,5.8-.83.54-.04,1.28-.04,1.82,0Z"/>
      <path class="cls-11" d="M151.76,208.81c.5.77.19.4-.35.55-13.33,3.66-27.38,4.15-41.09,2.83-1.46-.14-3.14-.39-4.55-.78,3.62.27,7.45.58,11.17.78l1.04.26c11.7.53,22.51-.69,33.78-3.64Z"/>
      <path class="cls-16" d="M88.36,74.41c.77-1.86,4.67-4,6.76-3.9.06.85-.08,1.75,0,2.6h-.26c-1.63.48-3.4.66-4.91,1.45-.54.28-1.03,1.42-1.84.89.09-.33.14-.75.26-1.04Z"/>
      <path class="cls-24" d="M186.59,283.93l-.15,1.59c-1.67.64-3.41.83-5.18,1.02-.49.05-1.05-.32-.91.51-.76.04-1.55,0-2.31-.03-.08-.43-.17-.85-.29-1.27.25-.49.36-.5.88-.54,2.72-.2,5.36-.31,7.95-1.28Z"/>
      <path class="cls-10" d="M187.89,289.39c.18.46-1.39,1.15-1.55,1.2-.9.27-1.22-.54-1.72.62-.36-.13-1.51-.28-1.8-.2-.17.05-.11.47-.27.47-.26.01-.67-.31-1.03-.28-1.35.09-2.42.64-3.75-.25,0,1.24-1,1.37-1.56,1.82-.04.03.04.45-.26.66-.5.34-2.81-.12-2.34,1.16-.45.11-.1-.48-.41-.52-.09-.01-1.64.02-1.73.05-.38.09-.68.61-1.14.67-2.29.27-8.65-.71-11.15-1.21-.52-.1-1.34-.74-1.65-.5-.12.09.16.58-.28.47l-.14-.78c-1.06.53-2.79-.16-3.24-1.3,6.05,1.66,11.63,3.16,18.03,2.31.58-.08,4.07-.81,4.32-1.01.1-.08,1.16-2.08,1.43-2.08h4.42c1.7,0,4.14-.95,5.85-1.3Z"/>
      <path class="cls-20" d="M51.46,188.79h1.04c0,.34,0,.69,0,1.04,0,.09,0,.17,0,.26-.45,1.11-1.23,2.19-1.3,3.38l-2.6-.52v-1.56c.66-1.43,1.5-2.01,2.86-2.6Z"/>
      <path class="cls-6" d="M140.07,123.28c.27.08.51.16.78.26l.26.26c.08.03.19-.03.26,0l.26.26h.26l.52.65-5.07,4.29c-.37-.22.04-.77.13-1.04s.11-.52.26-.78c.1-.06.22-.15.26-.26.03-.08-.03-.19,0-.26l.26-.26c.03-.07-.03-.18,0-.26l.26-.52c.02-.08-.02-.18,0-.26.72-.37.59-1.36.81-2.05l.75-.03Z"/>
      <path class="cls-10" d="M79.78,164.62l.66.78c-.24.2-.5.39-.6.71-.42,1.42-.57,3.54-.91,5.07-.19.87-1.06,1.45-.19,2.27-.97-.04-.69,1.42-.87,2.03-.02.05-.43.04-.43.2-.01.23.28.56.22.97-.16,1.15-.57.97.07,2.58.13.34.88.89.97,1.01.04.05-.29.69-.23,1.12.15,1.1.81,3.44,1.31,4.44l-.54.28c-.02.39.27.8.28,1.14h-.52c-.08-1.65-.29-3.08-.65-4.68-.28-1.28-1.64-4.57-1.65-5.32-.02-1.52,1.9-7.02,2.38-9.02.29-1.19.38-2.41.7-3.59Z"/>
      <path class="cls-5" d="M5.2,189.57c.74,3.31,1.82,6.01,3.12,9.1-.59.07-1.17-1.48-1.34-1.91-.51-1.21-.81-2.49-1.23-3.72-.14-.4.23-.74-.55-.61,1.29,7.78,3.81,15.06,7.46,22.03.34.65.66,1.36,1.06,2.08.3.53,1.4.88.84,1.88-6.45-10.73-9.65-20.72-10.39-33.27h.26c.07,1.5.46,2.97.78,4.42Z"/>
      <path class="cls-6" d="M156.96,151.88c-.28-1.26-.29-2.63-.52-3.9l3.07,3.3-.74,3.46s-.68-.42-.78-.52c-.3-.29-.34-.46-.52-.78l.25-.13-.25-.13c-.03-.07.03-.18,0-.26l-.26-.26c-.07-.25-.19-.47-.26-.78Z"/>
      <path class="cls-11" d="M147.35,117.05c-.19.07-.45.39-.89.53-6.14,2.08-13.95,2.37-20.16.51.08.01.17-.01.26,0,1.92.26,3.76.36,5.72.52,3.78.3,7.17.26,10.98-.54.71-.15,2.35-.77,3.38-1.11.36-.12.66.09.72.08Z"/>
      <path class="cls-2" d="M4.68,170.34c.86-.13.45.36.43.84-.06,1.49-.7,3.29-.69,4.49,0,1.11.88,1.29-.02,2.07l.02.5c1.13.43.13.9,0,1.62-.18.97.19,2.3.26,3.22-.44.41-.29,1.46-.26,2.08h-.26c-.3-5.01-.27-9.76.52-14.82Z"/>
      <path class="cls-5" d="M162.68,206.47c.05,5.63-2.23,13.05-4.42,18.2,2.02-5.81,3.23-11.68,3.9-17.68.02-.22-.04-.48.26-.52h.26Z"/>
      <path class="cls-20" d="M188.93,280.56c.52-.89,2.11-.54,3-.81l.34.08c.03.28.22.51.3.73.15.42.52.75,0,1.17-.35.28-2.85.89-3.11.64.1-.74-.29-1.21-.53-1.81Z"/>
      <path class="cls-22" d="M169.69,43.48c-.39.42-.78.11-1.19.03-5.44-1.05-11.92-.94-17.26-.29,6.05-1.14,12.51-1.64,18.45.26Z"/>
      <path class="cls-11" d="M105.25,253.52l-1.08,2.83c-.12.12-.38,0-.48.03l.65.53.26-.53h.26s.13.52.13.52l.38-.52c.85.56,1.93.81,2.35-.27,1.35,1.8,4.47-.23,6.35.5.02-.91.29-.4.54.03-1.92.24-3.88.68-5.85.78s-3.99-.07-5.97,0c.04-.77.42-.86.91-1.04-.15-.76,1.16-2.14,1.56-2.86Z"/>
      <path class="cls-2" d="M105.51,245.2c-.55-.25-.08-.8.03-1.13.91-2.6,1.83-5.6,2.04-8.36.06-.8.31-2.18-.52-2.34,0-.26.47.11.55-.5.18-1.45-.11-3.15-.28-4.57h.26c.86,6.34.3,10.89-2.08,16.9Z"/>
      <path class="cls-2" d="M180.61,53.36l-1.3-1.82.52,2.86h-1.3s.26-1.04.26-1.04l-1.04.52c.02-.43-.01-.87,0-1.3l1.43.78c.66.21-1.02-3.62-2.21-3.9,0-.38.15-.67.52-.78,1.63,1.81,2.14,2.33,3.12,4.68Z"/>
      <path class="cls-2" d="M185.03,133.42c-1.42-5-1.42-10.69,1.04-15.34-1.67,4.71-1.98,9.18-.95,14.08.08.38.4,1.01-.09,1.26Z"/>
      <path class="cls-2" d="M214.65,129.78c-.49-.08-1.04.1-1.56-.26l-.65.78.39-.39c-.18-.25-.36-.33-.66-.38-.78-.13-4.22-.06-5.16.02-2.43.21-4.72,1.07-6.72,2.22-.38.22-.71-.25-1.46.78-1.53,2.1-.8,4.73.22,6.85-2.41-2.52-1.94-6.54,1.16-8.33,3.47-1.99,10.71-2.73,14.43-1.29Z"/>
      <path class="cls-6" d="M74.84,172.42c-.43-.25-1.83-2.7-1.78-2.96l2.56-1.98-.78,4.94Z"/>
      <path class="cls-2" d="M183.73,72.85c-.59-2.34-.1-4.99-.26-7.41-.15-2.28-.72-4.93-1.3-7.15h.26c1.28,4.78,2.08,9.59,1.3,14.56Z"/>
      <circle class="cls-8" cx="137.71" cy="37.82" r="1.35"/>
      <path class="cls-22" d="M109.93,18.52c-.39.44-.81.17-1.25.1-3.86-.66-7.02-.7-10.77.74l-3.57,1.76c4.48-3.58,10.18-4.03,15.59-2.6Z"/>
      <path class="cls-11" d="M56.65,235.32c.02.42-.16,1.08.26,1.3.29,4.57,1.14,8.78,2.08,13.26-.04,0-.13.23-.25.26-.98-4.73-2.1-9.45-2.35-14.3h-1.04s.78-.52.78-.52c.17,0,.35,0,.52,0Z"/>
      <path class="cls-5" d="M139.55,111.85c3.87-.19,9.11-1.17,11.54-4.44s.6-6.93-.63-10.38l1.83,4.02c2.48,6.74-4.92,10.58-10.54,11.05-.63.05-1.71.19-2.21-.25Z"/>
      <path class="cls-2" d="M214.65,142.78l-7.63-.52c-.6,1.3-.65.14-.74.08-.84-.58-3.33.73-4.36.19,3.74-1.38,8.96-.68,12.73.26Z"/>
      <path class="cls-2" d="M162.94,266.52c-1.11.67-2.55.03-3.76-.01-1.85-.07-6.44.42-7.68.01l2.99-.52h4.94c.77,0,2.58.39,3.51.52Z"/>
      <path class="cls-12" d="M213.87,116.27c-2.2-.78-5.07-.98-7.4-.78-1.29.11-2.8.91-4.03.52,3.35-1.15,8.32-1.66,11.43.26Z"/>
      <path class="cls-12" d="M22.87,152.66c-.96,4.17-1.04,7.19-1.04,11.44,0,.09,0,.17,0,.26v.52c-.61-3.51-.5-7.87.45-11.39.12-.45-.16-.98.59-.82Z"/>
      <path class="cls-2" d="M70.17,61.94c.52.43-.53,1.18.52,1.04v.25c-1.07-.25-1.37,1.59-1.59,2.44-.73,2.78-.78,5.47-.89,8.31-.02.44.51.8-.37.69-.15-4.54.32-8.64,2.34-12.74Z"/>
      <path class="cls-3" d="M57.17,296.15c.4.23,2.24.59,2.81.7,1.06.19,2.02.04,3.02.36l.15-.53.36.5c1.35-.19,3.29-.67,4.57-.24-3.17.84-8.15.95-10.91-.78Z"/>
      <path class="cls-23" d="M52.49,190.09c-.06,1.33-.41,2.59-.52,3.9l-3.9-.78c-.08-.08.38-1.52.52-1.82v1.56s2.6.52,2.6.52c.07-1.19.85-2.27,1.3-3.38Z"/>
      <path class="cls-22" d="M134.35,14.62c-2.87,0-5.81.03-8.51,1.5-.34.18-.61.54-1.11.84-.37.23-.77.36-1.04.52,2.6-2.98,6.94-3.55,10.65-2.86Z"/>
      <path class="cls-5" d="M111.48,233.76h-.26c-.26-5.71-1.26-10.66-3.64-15.86,1.96,3.57,3.13,6.82,3.75,10.89.26,1.68.22,3.19.15,4.97Z"/>
      <path class="cls-10" d="M141.89,287.05c-.5-.01-.61.66-1.41-.28l-1.45.28.26-.78c-1.18-.05-2.57-.66-3.71-1.11-.4-.16-.84-.07-.71-.71,2.25.6,4.89,1.66,7.02,2.6Z"/>
      <path class="cls-2" d="M44.44,205.43s.05.39-.26.14c-1.06-.85-2.41-4.72-2.54-6.05-.07-.72.4-1.53.73-2.15-.29,3.04.3,5.6,2.08,8.06Z"/>
      <path class="cls-20" d="M168.14,209.33l-.66,1.05c-.58-.25-.98-.69-1.68-.53.11-.76.42-1.5.26-2.34.73.55,1.41,1.19,2.08,1.82Z"/>
      <path class="cls-5" d="M126.56,118.09c-.09-.01-.18.01-.26,0-5.61-.82-12.86-4.12-17.59-7.23-.36-.23-.7-.38-.86-.83,2.68,1.67,5.51,3.19,8.4,4.46,3.39,1.49,6.78,2.51,10.31,3.59Z"/>
      <path class="cls-12" d="M214.39,126.14c-3.37-.39-6.76-.31-10.13,0,2.83-.78,7.38-1.01,10.13,0Z"/>
      <path class="cls-5" d="M99.79,87.41c-2.64-4.3-4.66-9.19-4.94-14.3h.26c.45,5.08,2.56,9.75,4.68,14.3Z"/>
      <path class="cls-12" d="M107.59,228.31h-.26c-.41-3.32-1.37-6.77-2.6-9.88,1.93,2.97,2.4,6.46,2.86,9.88Z"/>
      <path class="cls-3" d="M168.14,289.91c-.5.45-1.57.3-2.21.26-2-.15-4.54-.54-6.37-1.3,2.6.53,5.92.92,8.58,1.04Z"/>
      <path class="cls-22" d="M149.17,43.74l.15.27c-2.36.36-4.65,1.04-6.96,1.62-.38.1-.98.43-1.24-.08,2.69-.71,5.29-1.39,8.06-1.82Z"/>
      <path class="cls-12" d="M126.04,131.34c-3.08.44-6.27.35-9.36,0,.63-.75,1.98,0,2.47,0h4.16c.58,0,2.07-.76,2.73,0Z"/>
      <path class="cls-12" d="M179.57,227.01l.26.26c.91,3,1.42,5.96,1.3,9.1l-1.56-9.88c.05.14-.05.38,0,.52Z"/>
      <path class="cls-8" d="M79.52,187.23c.06,1.68-.09,3.63-.29,5.3-.04.37-.05,1.67-.75,1.46.36-2.47.65-4.17.52-6.76h.52Z"/>
      <path class="cls-12" d="M170.21,85.33c-2.92.98-5.32,1.34-8.32,1.82v-.26c2.48-.4,4.75-.93,7.18-1.53.31-.08.96-.46,1.14-.03Z"/>
      <path class="cls-2" d="M217.25,139.92c1.35-2.71,1.51-5.72.52-8.58,1.75,2.49,1.21,6.32-.52,8.58Z"/>
      <path class="cls-3" d="M93.81,279h-.26c-.53-4.77-2.19-8.31-.26-13-1.17,4.51,0,8.54.52,13Z"/>
      <path class="cls-12" d="M210.75,138.88c-2.63-.06-5.16-.58-7.8,0,0-.04-.23-.14-.26-.25,2.86-.45,5.33-.54,8.06.25Z"/>
      <path class="cls-3" d="M60.81,206.99l-3.8.49c-1.24-.26-2.51-.22-3.74-.49h7.54Z"/>
      <path class="cls-2" d="M194.64,137.32c-.01-.05-.22-.23-.27-.62-.22-1.76.5-4.86,1.83-6.14l.21.12c-1.47,1.88-1.7,4.33-1.77,6.64Z"/>
      <path class="cls-11" d="M130.2,252.74c-1.68.72-3.72,1.56-5.46,2.08-.51-.77-.17-.39.32-.59,1.31-.53,2.68-.97,4-1.46.33-.12.89-.57,1.14-.03Z"/>
      <path class="cls-10" d="M89.4,298.49l-.26,1.04c-.02-.73.15-.54-.4-.26-1.98,1.02-1.91,1.06-4.02,1.57,1.52-.84,3.13-1.55,4.68-2.34Z"/>
      <path class="cls-12" d="M198.54,109.51c-.61-1.01.44-2.39.27-3.5l-.27-4.04c.84,2.53.65,4.99,0,7.54Z"/>
      <path class="cls-12" d="M189.7,110.03c-.14-.97.08-1.98,0-2.99-.07-.87-.31-2.41-.51-3.25l.61,1.34c.49,1.69.25,3.29-.09,4.9Z"/>
      <path class="cls-12" d="M155.92,87.93c-2.78.11-6.07.13-8.84,0,.27-.43.99-.26,1.43-.26,1.99-.02,3.99-.02,5.98,0,.44,0,1.16-.17,1.43.26Z"/>
      <path class="cls-12" d="M132.79,27.1c-.48,1.26-.8,3.07-.78,4.42l.26.26c.03.43-.04.87,0,1.3-.79.14-.5-.4-.52-.9-.05-1.47.06-2.89.39-4.31.1-.44,0-.91.65-.77Z"/>
      <path class="cls-12" d="M61.07,238.96c-.27-2.57-.38-5.21-.26-7.8l.53,6.1-.27,1.7Z"/>
      <path class="cls-12" d="M93.81,66.88c2.08-.92,3.5-.89,5.82-.75.08,0,1.58.16.94.49-2.35-.6-4.45-.06-6.76.26Z"/>
      <path class="cls-2" d="M161.9,86.89v.26c-1.76.28-3.39.68-5.2.78-.14-.83.42-.46.91-.51,1.43-.15,2.87-.3,4.29-.53Z"/>
      <path class="cls-12" d="M94.07,284.71l-.52-5.72h.26c.25,2.15.45,3.57.26,5.72Z"/>
      <path class="cls-3" d="M92.51,105.35c.56.47,0,.24-.39.26-2.54.15-4.91-.27-7.15-1.3,2.47.56,4.98,1.03,7.54,1.04Z"/>
      <path class="cls-4" d="M40.8,292.51c-1.21-1.56-1.28-4.8-.26-6.5-.36,2.26-.48,4.3.26,6.5Z"/>
      <path class="cls-3" d="M203.74,151.1l6.24.26c.1.47-.42.17-.52.26-1.91.04-3.87.03-5.72-.52Z"/>
      <path class="cls-12" d="M58.99,284.97l-2.34,4.94c.48-1.76.87-3.67,2.34-4.94Z"/>
      <path class="cls-12" d="M194.38,128.48c-1.38-1.89-1.62-3.74-1.04-5.98-.14,2.07.41,4.05,1.04,5.98Z"/>
      <path class="cls-3" d="M180.35,287.05c-.14-.83.42-.46.91-.51,1.77-.19,3.51-.37,5.18-1.02l.15-1.59h.26c.02.46.05.93-.04,1.38-.37,1.04-5.33,1.68-6.45,1.74Z"/>
      <path class="cls-2" d="M59.77,273.28c-2.04,1.56-5.07,2.52-7.53,3.78-.26.13-.9.63-1.05.12,2.67-1.62,5.71-2.67,8.58-3.9Z"/>
      <path class="cls-3" d="M176.19,166.44c-1.89.62-3.28.77-5.2,1.04,1.23-.53,2.68-.76,4-1.07.35-.08.97-.45,1.2.03Z"/>
      <path class="cls-10" d="M148.65,289.65c-.98-.28-3.33-.26-3.64-1.56,1.16.31,2.69.85,3.64,1.56Z"/>
      <path class="cls-3" d="M51.98,293.29c-1.94.65-3.72.36-5.46-.52.96.05,2.08.49,3,.52s1.77-.47,2.46,0Z"/>
      <path class="cls-2" d="M200.1,149.02c-1.56-1.99-1.5-4.11.52-5.72-1.33,1.8-1.56,3.71-.52,5.72Z"/>
      <path class="cls-2" d="M183.21,270.16c-.16.41-.86.07-1.15-.02-2.02-.64-4.05-1.16-6.13-1.54,2.4-.09,5.07.63,7.28,1.56Z"/>
      <path class="cls-12" d="M202.7,126.66c-1.27.37-2.52.79-3.77,1.21-.32-.04-.71-.67-.9-.95.35-.5.22.52,1.12.45,1.05-.09,2.52-1.38,3.55-.71Z"/>
      <path class="cls-3" d="M92.51,208.81c-.25.45-.95.27-1.36.2-4.29-.74-8.96-1.84-12.93-3.58,4.66,1.57,9.5,2.4,14.29,3.38Z"/>
      <path class="cls-2" d="M75.1,186.45c-.86.15-.42-.45-.51-.91-.11-.61.14-1.11-.79-1.17l.53-.42c-.08-1.51-.66-2.94-1.06-4.38-.09-.34-.51-.93,0-1.17.82,2.41,1.66,5.53,1.82,8.06Z"/>
      <path class="cls-12" d="M182.43,58.3h-.26c-.42-1.61-.92-3.42-1.56-4.94,1.21,1.38,1.37,3.26,1.82,4.94Z"/>
      <path class="cls-12" d="M40.54,166.7c-.74-1.34-1.6-2.9-1.82-4.42.49,1.13,1.15,2.26,1.69,3.38.13.26.65.89.13,1.04Z"/>
      <path class="cls-3" d="M55.61,210.89c-1.42.72-3.17-.25-4.42-.78,1.49.2,2.93.57,4.42.78Z"/>
      <path class="cls-3" d="M206.34,152.92c-2.28.49-4.05.45-6.24-.52,2.06.38,4.13.64,6.24.52Z"/>
      <path class="cls-8" d="M97.97,285.23c0,.97.34,2.11-.22,3.29l-1.08,2.17c.65-1.76,1.06-3.59,1.3-5.46Z"/>
      <path class="cls-12" d="M110.97,78.83c4.01,1.52,8.63,3.2,12.93,4.35.08.02,1.71.31,1.1.59-4.74-1.38-9.61-2.67-14.03-4.94Z"/>
      <path class="cls-8" d="M97.71,279c.79-.15.5.4.52.9.03.9.2,2.22-.26,3-.07-1.31-.12-2.6-.26-3.9Z"/>
      <path class="cls-3" d="M74.06,294.85l.48.04c.08.35.14.68.3,1,.14.29.11.69.39,1.03,1.08,1.33,3.69.35,5.07,1.05-2.65.41-5.88.2-6.24-3.12Z"/>
      <path class="cls-2" d="M174.37,288.35h-.26c.46-1.44.05-2.72-.11-4.18l-.93-3.1c1.18,2.05,1.92,4.98,1.3,7.28Z"/>
      <path class="cls-12" d="M164.76,216.09c.48.54.03,1.72-.13,2.34-.22.89-.53,1.95-.84,2.8-.19.52.16.81-.59.32.64-1.92,1.12-3.42,1.56-5.46Z"/>
      <path class="cls-11" d="M159.82,206.47c.68.22-.72.62-.79.64-1.03.33-2.13.72-3.16,1-.38.1-.99.42-1.25-.08,1.75-.5,3.46-1.03,5.2-1.56Z"/>
      <path class="cls-11" d="M153.06,96.51h-.26c-.89-.58-1.25-3.66-1.99-3.86l-1.64-.03,1.3,3.64h-.26c-.04-.12-.35-.36-.47-.69-.36-1.07-.47-2.22-1.09-3.21.71.1,2.29-.28,2.73.26.35.42,1.34,3.13,1.69,3.9Z"/>
      <path class="cls-8" d="M90.7,124.58c-1.03-.43-1.94-.73-3.03-1.01-.46-.12-1.03.28-.87-.54,1.22.1,3.1.57,3.9,1.56Z"/>
      <path class="cls-10" d="M144.75,288.09s-.28.25-.59.19c-.35-.07-2.31-.74-2.01-1.23.67.03,2.09.58,2.6,1.04Z"/>
      <path class="cls-23" d="M51.46,188.79c.52-.23.91-.8,1.82-.52l-.78,1.56c0-.35.01-.7,0-1.04h-1.04Z"/>
      <path class="cls-8" d="M140.07,123.28l-.75.03c-.22.7-.09,1.68-.81,2.05.19-.8.36-1.5.26-2.34.57-.2.92.15,1.3.26Z"/>
      <path class="cls-12" d="M180.61,240c-.31-.69-.11-2.53.52-3.12-.07,1.07-.22,2.09-.52,3.12Z"/>
      <path class="cls-11" d="M42.62,244.94c.25-.6.78-.05,1.08.09,1.74.76,3.49,1.54,5.2,2.35.38.18.88.05.73.69-2.2-.83-4.92-2.06-7.02-3.12Z"/>
      <path class="cls-3" d="M69.65,83.77c-.61-1.66-.95-3.5-1.3-5.2.69,1.24.9,2.68,1.31,4.02.1.34.49.95,0,1.18Z"/>
      <path class="cls-2" d="M51.98,180.73c-1.28-.78-2.38-2.03-3.38-3.12.11-.52.66.27.78.39.89.89,1.72,1.85,2.6,2.73Z"/>
      <path class="cls-3" d="M83.68,108.73c-.22-1.03-.33-2.06-.26-3.12.23.92.88,2.24.26,3.12Z"/>
      <path class="cls-3" d="M134.61,258.46c.3-1.19.58-2.96,1.3-3.9-.19.95-.42,2.43-.76,3.28-.17.42-.53.58-.54.62Z"/>
      <path class="cls-10" d="M150.46,290.43l.13-.25c.53.48,1.37.34,1.69,1.03-.45,0-1.12.01-1.63-.27-.29-.15-.16-.5-.19-.51Z"/>
      <path class="cls-10" d="M134.61,284.45c-.82-.2-1.83.27-2.08-1.04.68.29,1.53.56,2.08,1.04Z"/>
      <path class="cls-3" d="M147.35,284.45l-5.46-2.08c.47.14,1.12.08,1.6.35l3.86,1.73Z"/>
      <path class="cls-3" d="M118.76,119.65c-.81-.24-1.91-.22-2.34-1.04.64.27,1.78.28,2.34,1.04Z"/>
      <path class="cls-27" d="M162.68,206.47h-.26v-.78c-.36.22-.69.18-1.04.26l1.3-.78c0,.43,0,.87,0,1.3Z"/>
      <path class="cls-10" d="M92.77,296.15c.32-.39.53-.83,1.04-1.04-.21.43.2,1.21-1.04,1.04Z"/>
      <path class="cls-10" d="M153.58,291.47l-.78.52-.26-.78c1.02-.07.57.13,1.04.26Z"/>
      <path class="cls-11" d="M149.17,238.96c-.89,1.39-2.21,2.56-3.39,3.76-.31.32-.5.66-1.03.66,1.44-1.36,3.05-2.98,4.42-4.42Z"/>
      <path class="cls-8" d="M78.22,195.55c-.03.24.48,1.49-.52,1.3.08-.46.15-.97.52-1.3Z"/>
      <path class="cls-10" d="M83.68,159.42l.25.51c-1.03-.02-.63,1.12-.78,1.3-.08.1-.58-.05-.77.01.33-.66.92-1.23,1.3-1.82Z"/>
      <path class="cls-4" d="M71.21,300.05s.12.44-.18.52c-.33.1-.82-.08-1.12,0l1.3-.52Z"/>
      <path class="cls-10" d="M92.25,296.67c-.13.14-.13.56-.33.71-.23.17-1.05.36-1.49.59l1.82-1.3Z"/>
      <path class="cls-3" d="M197.5,150.58c-.72-.69-1.25-1.48-1.29-2.52-.01-.39.25-.57.25-.6-.04,1.1.62,2.13,1.04,3.12Z"/>
      <path class="cls-3" d="M196.46,146.94c-.62-.54-.19-1.27,0-1.82-.03.6.05,1.22,0,1.82Z"/>
      <path class="cls-10" d="M188.93,288.87s.4-.02.26.52c-.33.04-.72-.05-1.04,0l.78-.52Z"/>
      <path class="cls-10" d="M81.34,162.54c-.5,1.35-.28.39-.73.83-.22.22.29.98-.83.73.25-.57,1.05-1.19,1.56-1.56Z"/>
      <path class="cls-8" d="M76.92,201.27c.31.06.71-.05,1.04,0v.52c-.36-.13-.8-.07-1.04-.52Z"/>
      <path class="cls-3" d="M93.03,289.13c-.55-.24.19-1.25.52-1.56-.18.6-.27.97-.52,1.56Z"/>
      <path class="cls-3" d="M83.94,110.81c-.04-.51.03-1.04,0-1.56.11.39.67,1.08,0,1.56Z"/>
      <path class="cls-8" d="M76.66,201.27c-.21-.04-.49-.31-.78-.26-.14-.52.39-.76.52-1.04l.26,1.3Z"/>
      <path class="cls-4" d="M71.73,300.05l.13-.26h.65s0,.52,0,.52c-.13-.05-.74-.25-.78-.26Z"/>
      <path class="cls-8" d="M77.7,197.11c-.05.33.04.7,0,1.04h-.52c.13-.36.07-.8.52-1.04Z"/>
      <path class="cls-16" d="M56.91,236.62c-.42-.22-.24-.88-.26-1.3h.26c.02.43-.03.87,0,1.3Z"/>
      <path class="cls-3" d="M77.96,205.43c-.74-.24-1.15-.45-1.82-.78.65.06,1.52.13,1.82.78Z"/>
      <path class="cls-8" d="M97.97,283.41l.52.13v.39s-.52,0-.52,0c0-.17,0-.35,0-.52Z"/>
      <path class="cls-12" d="M20.01,140.44l-1.13,1.47-2.51,2.17c1.14-1.31,2.33-2.49,3.64-3.64Z"/>
      <path class="cls-8" d="M96.15,291.99v.78s-.52,0-.52,0c.15-.24.43-.61.52-.78Z"/>
      <path class="cls-16" d="M117.98,212.45l-1.04-.26c.55.03.99.26,1.04.26Z"/>
      <path class="cls-3" d="M141.63,282.37c-.43-.13-.93-.15-1.3-.26.27-.54,1.05-.13,1.3.26Z"/>
      <path class="cls-4" d="M40.54,285.75c.09-.48-.01-.99.52-1.3-.07.45-.16.98-.52,1.3Z"/>
      <path class="cls-3" d="M150.2,285.49c-.49.01-1.02-.07-1.3-.52l1.3.52Z"/>
      <path class="cls-3" d="M93.55,287.31l.26-.78c-.09.41-.21.61-.26.78Z"/>
      <path class="cls-10" d="M82.12,161.5c-.05.09.04.36,0,.52h-.52c.11-.24.27-.41.52-.52Z"/>
      <path class="cls-5" d="M109.15,99.37l-3.05-2.67c-.14-.12-.03-.4-.07-.45,1.22.8,2.1,2.15,3.12,3.12Z"/>
      <path class="cls-10" d="M94.85,293.81c-.1.28.2.65-.52.52.19-.29.45-.42.52-.52Z"/>
      <path class="cls-3" d="M91.99,291.21l-.25-.13,1.03-1.43c-.23.48-.5,1.13-.78,1.56Z"/>
      <path class="cls-23" d="M38.72,162.28c-.42-.98-.8-2.71-.8-3.79,0-.07.27-.66.38-1.23.63-3.15,2.74-6.68,4.84-9.14,1.51-1.77,2.26-2.81,4.74-2.41,4.6.74,10.84,5.96,13.87,9.39.89,1,2.21,2.48,2.3,3.8-.91-.49-2.04-.43-2.99-.13,5.18,5.44,9.78,12.49,12.21,19.63-.51.24-.09.83,0,1.17.39,1.45.98,2.88,1.06,4.38l-.53.42c.93.06.68.56.79,1.17.09.46-.35,1.06.51.91.32,5.04-.15,8.26-2.86,12.48.03-.16-.04-.39,0-.52.03-.1.35-.25.26-.52l-.26.52c-4.68,5.27-13,7.74-19.86,5.96-1.01-.26-3.17-.97-4.05-1.41-.95-.48-1.57-1.86-2.6-1.43-1.28-3.02.16-5.22,3.32-5.65,4.1-.57,2.82,1.62,5.52,3.57.15-2.89-.17-5.78.34-8.63.31-1.76.92-4.65,2.52-5.53-2.18-1.27-3.72-2.8-5.46-4.55-.88-.88-1.71-1.84-2.6-2.73-.12-.12-.67-.91-.78-.39-2.97-3.23-5.93-7.07-8.06-10.92.52-.16,0-.78-.13-1.04-.54-1.11-1.21-2.25-1.69-3.38Z"/>
      <path class="cls-3" d="M116.16,118.61l-.52-.26c.2.09.39.2.52.26Z"/>
      <path class="cls-3" d="M119.54,119.91l-.52-.26c.33.1.49.25.52.26Z"/>
      <path class="cls-23" d="M88.36,120.17c-.2-.05-.44.02-.52-.26l.52.26Z"/>
      <path class="cls-3" d="M148.13,284.71l-.52-.26.52.26Z"/>
      <path class="cls-3" d="M120.32,120.17l-.52-.26c.33.1.49.25.52.26Z"/>
      <path class="cls-8" d="M131.49,282.89s-.11.26-.25.26l-.27-.78c.21.15.44.24.52.52Z"/>
      <path class="cls-3" d="M140.07,281.86c-.14-.04-.38.04-.52,0l.14-.26.38.26Z"/>
      <path class="cls-8" d="M138.25,126.14c.1-.28.25-.49.26-.52l-.26.52Z"/>
      <path class="cls-3" d="M134.35,259.5c.05-.13-.05-.39,0-.52l.26.14-.26.38Z"/>
      <path class="cls-23" d="M132.27,31.78l-.26-.26.26.26Z"/>
      <path class="cls-8" d="M137.73,127.18c.06-.1.17-.18.26-.26-.04.11-.16.2-.26.26Z"/>
      <path class="cls-8" d="M137.99,126.66c.07-.14.25-.23.26-.26l-.26.26Z"/>
      <path class="cls-8" d="M127.86,279.52l-.52-.52s.35.29.52.52Z"/>
      <path class="cls-8" d="M91.48,124.84l-.13.26-.39-.51c.18.08.35.17.52.26Z"/>
      <path class="cls-8" d="M141.63,124.06l-.26-.26c.11.04.2.16.26.26Z"/>
      <path class="cls-8" d="M141.11,123.8l-.26-.26c.11.04.2.24.26.26Z"/>
      <path class="cls-23" d="M179.83,227.27l-.26-.26s.21.09.26.26Z"/>
      <path class="cls-3" d="M148.65,284.97l-.26-.26.26.26Z"/>
      <path class="cls-8" d="M157.48,152.92c-.02-.06-.23-.15-.26-.26l.26.26Z"/>
      <path class="cls-8" d="M157.48,153.44c-.04-.06.03-.19,0-.26l.25.13-.25.13Z"/>
      <path class="cls-5" d="M110.19,100.41l-.78-.78c.28.26.57.59.78.78Z"/>
      <path class="cls-8" d="M78.48,202.05c-.14-.05-.22-.24-.26-.26l.26.26Z"/>
      <path class="cls-8" d="M96.15,291.73c.09-.19.25-.24.26-.26l-.26.26Z"/>
      <path class="cls-4" d="M41.06,293.03l-.26-.26c.02.06.2.14.26.26Z"/>
      <path class="cls-8" d="M94.85,293.81c.07-.1.2-.17.26-.26-.06.1-.23.19-.26.26Z"/>
      <path class="cls-8" d="M76.66,199.19c.05-.12.23-.19.26-.26l-.26.26Z"/>
      <path class="cls-8" d="M76.92,198.67c.06-.15.24-.22.26-.26l-.26.26Z"/>
      <path class="cls-10" d="M89.66,298.49s.18-.34.52-.52l-.52.52Z"/>
      <path class="cls-23" d="M21.83,164.36c0-.09,0-.17,0-.26v.26Z"/>
      <path class="cls-28" d="M136.69,144.86c-.07-.03-1.32-.15-1.56-.26.75,1.09-.08,3.09.07,3.99.07.38.64.67.67,1.32.03.56-.36,1.98-.75,2.48-1.99-1.76-4.16-3.37-6.11-5.2l-.38.38c3.12,5.23,6.44,10.41,9.35,15.73h-.78c.66-.88-.43-1.29-.52-.65-.15,1.19,1.28,2.61,1.3.65.23.42.53.82.78,1.3l-.92.24-.12,1.32.75-.25c.07.6,1.12,1.48.55,2.07-.22-.51-.57-.95-.52-1.56-.08-.08-.32.15-.39.26-.8,1.24-1.58,5.2-2.2,6.89-.37.99-.98,1.87-1.3,2.73-.14.36-.57.77-.52,1.3v.26l-2.07,5.03-.78.17c-.2-.2.52-2.42.45-2.96-.06-.47-.63-.82-.71-1.35-.18-1.24-.02-2.33-.53-3.81-.08-.23-.9-.61-.93-1.11l1.47-1.94-.53-.15.28-.89-1.3-.27c-.23-.76.59-.3.55-.9-.04-.49-.37-.75-.42-1.05-.08-.46.59-1.3-.38-1.17v-.25c.87.09,1.13-3.22,0-2.34v.52c-.54.07-.59.02-.52-.52.15-.04.46.05.52,0,.72-.6-.58-2.15-.53-2.69.61-.52,1.3-.73,1.05-1.72l-.78.52c.68-1.08-.15-1.86-.2-2.53-.04-.49-.1-2.98.45-2.67v-.52s-1.29-.53-1.29-.53l.51-.64c-.9-.98-1.16-1.43,0-2.21l-1.04-.39c.54-.25.6-.21.52-.91h-1.04c-.11-.46.42-.17.5-.27.25-.29-.24-.48-.25-.51-.41-1.25.56-1.96,0-2.6-.08-.09-.16-.18-.26-.26.3-.68.04-1.93,1.04-2.21-.34-.51-.68-.35-1.17-.13l-.13-1.3c1.08-.13,2.92-.51,3.9-.52,2.04-.02,4.47,1.17,6.24,2.08ZM130.58,169.04v.26c.17-.09.17-.17,0-.26Z"/>
      <path class="cls-25" d="M113.3,149.8c.04.9-1.23,1.26-1.04,1.94.03.12.41.08.5.33.05.13.45,1.49.47,1.57.08.54-.26,1.75-.06,2.13.26.51,1.46.7,1.44,1.43-.6.86-.46,1.75-.26,2.73l-1.31.15c.13,1.3,1.2,1.57,1.96,2.44l.39-.77c.75-.23.43.43.51.52.05.05,1.15-.03.26,1.04-.09-.23-.22-1-.26-1.04-.35-.34-.46.05-.58.33-.81,1.78-.91,5.85-.65,7.79.34,2.52,2.34,5.21,4.09,6.96l-1.38.28c-.6-1.26-1.32-1.09-2.51-.8-.06.43.62.29.78.65.36.8-.54.47-.52.91,1.47-.21,1.09,2.14.51,2.99l.76.42-.24.6.55.54c-.2.95-.73,1.56-.55,2.6.16.92,1.24.74,1.04,1.44-10.73-8.51-13.58-26.8-3.9-37.17Z"/>
      <path class="cls-18" d="M142.15,149.54c.08.09.18.17.26.26-.03.34.12.58.39.77l.13-.25c5.11,6.13,6.31,13.08,5.72,20.8-.36.22-.42.9,0,1.04-.02.17.02.35,0,.52-.82-.15-.45.4-.52.89-.48,2.99-1.06,5-2.48,7.68-.18.35.08.67-.63.53v-3.12s-1.04,0-1.04,0c-.38-.86.54-1.02.5-1.37-.11-.77-.73-1.38-1.27-1.88v-.25s.52-.13.52-.13l-.53-.39c.35-.8.76-1.64.53-2.55-.05-.2-.52-.18-.53-.32-.03-.64.99-3.41,1.06-4.65.11-1.85-.09-2.71-.79-4.3-.59-1.36-1.52-3.19-2.34-4.42,1.08-.7-.12-1.48-.02-2.19l.55-.31c-.09-1.14-.98-1.46,0-2.31l-.54-.82c-.28-.96.44-.81.61-1.19.36-.83-.66-2.11.43-2.02ZM145.14,178.13v.26c.17-.09.17-.17,0-.26Z"/>
      <path class="cls-19" d="M143.45,162.8c.69,1.59.9,2.45.79,4.3-.07,1.24-1.09,4.01-1.06,4.65,0,.14.48.12.53.32.23.91-.18,1.75-.53,2.55l.53.39-.52.13v.25c.55.5,1.17,1.12,1.28,1.88.05.34-.87.51-.5,1.37h1.04s0,3.12,0,3.12c.71.14.45-.18.63-.53,1.42-2.68,2-4.69,2.48-7.68.08-.49-.29-1.04.52-.89-.65,5.03-2.23,8.63-5.46,12.48l-.13-.25c-.61.28-.78.3-.65,1.03-.08.09-.17.17-.26.26l-.26.26c-.09.09-.17.18-.26.26-.97.24-1.31,1.44-2.34,1.3l-.27-1.42c.37-.27.67.01.53-.66l-1.19-.25.15-1.31c-1.31-.13-.9-.43-1.12-1.36-.27-1.16.09-1.01.04-1.32-.04-.23-.5-.47-.46-.8.02-.13.58-.67.76-.94,1.21-1.82,3.21-3.49,3.39-5.85.14-1.84-1.34-4.39-2.09-6.1.57-.59-.48-1.47-.55-2.07l-.75.25.12-1.32.92-.24c1.31,2.51,2.21,4.91,3.35,7.43.14.31-.12.47.54.37.98-3.19,1.43-6.29.78-9.62Z"/>
      <path class="cls-17" d="M117.98,145.64c.61.88-.73.73-.78.78-.15.15,1.17,3.21,1.04,3.9l.26-.52c.71-.69.76,1.99-.78,1.3.63.94-.07,1.23-.26,2.08l.47-.2.08.39.74-.19-.52.26v.52c.74-.13.25.81.78,1.3-3.15,4.29-2.26,6.72.05,11.01.19.36.1.82.73.68-.19.49-.55.52-1.04.52v.38c.74.7,1.08,1.63,1.56,2.47-1.85-2.04-3.11-4.49-4.16-7.02.89-1.07-.21-.99-.26-1.04-.08-.09.23-.75-.51-.52l-.39.77c-.75-.87-1.83-1.15-1.96-2.44l1.31-.15c-.2-.99-.33-1.87.26-2.73.03-.72-1.17-.92-1.44-1.43-.19-.38.15-1.6.06-2.13-.01-.08-.42-1.44-.47-1.57-.1-.26-.47-.21-.5-.33-.19-.68,1.08-1.04,1.04-1.94.64-.69,1.01-1.22,1.82-1.82.2-.14.53-.24.78-.26l-.26-.26c.62-.68,1.53-1.3,2.34-1.82ZM114.08,155v-.78h-.25v.78h.25ZM114.73,158.38v.26c.17-.09.17-.17,0-.26Z"/>
      <path class="cls-19" d="M136.69,144.86c1.53.66,4.24,3.39,5.46,4.68-1.09-.09-.08,1.19-.43,2.02-.17.38-.89.24-.61,1.19l.54.82c-.98.85-.1,1.16,0,2.31l-.55.31c-.1.71,1.09,1.49.02,2.19-1.59-2.37-3.87-4.11-5.98-5.98.39-.5.77-1.93.75-2.48-.03-.65-.61-.94-.67-1.32-.15-.9.67-2.9-.07-3.99.24.1,1.49.23,1.56.26Z"/>
      <path class="cls-15" d="M121.88,179.95c1.62,1.12,2.98,2.63,4.42,3.9-1.2.07-.93.53-1.29,1.43.98-.24,1.08.44,1.55,1.16-.42.02-1.88.86-1.55,1.3l.48.12-.24.67h1.04s-.52,2.33-.52,2.33l2.47.27-.65.26c-.42-.05-.91.07-1.35-.07l-1.25-.45-4.15-1.95,1.55-2.21h-.52s0-.39,0-.39l.52-.39c-1.37.26-.85-.33-1.29-.91-.59-.76-2.37-2.22-.27-2.08-.36-.44-.36-1.13,0-1.57-2.26-.04-.6-.86-.51-1.94.79-.32,1.33,1.09,1.56.52ZM124.35,183.85v.26c.17-.09.17-.17,0-.26ZM122.01,188.27v.26c.17-.09.17-.17,0-.26Z"/>
      <path class="cls-28" d="M137.73,179.95c-.18.27-.74.82-.76.94-.05.32.42.56.46.8.05.31-.31.16-.04,1.32.22.93-.19,1.23,1.12,1.36l-.15,1.31,1.19.25c.14.68-.17.39-.53.66l.27,1.42c1.03.14,1.37-1.06,2.34-1.3-2.54,2.34-3.83,3.18-7.28,3.9-.16.03-.36-.03-.52,0,.25-1.01.3-1.3-.39-2.09-.13-.15-1.28-.42-.46-.77l.59-.12-1.04-2.47c1.24-.86,1.92-1.97,2.98-3.12.68-.73,1.42-1.47,2.21-2.08ZM134.09,185.15c-.49-.08-.86.3-.78.78h.78s0-.78,0-.78Z"/>
      <path class="cls-15" d="M130.46,142.78c-.98.01-2.82.39-3.9.52-1.91.24-3.58.29-5.46,1.04-.19.72.57.63,1.04.78l-.52,1.81.78.13c.14.57-.34.24-.51.58-.28.57.28,1.24-1.05.97l.26,1.17.76-.25c.33.9.36,1.23,1.32,1.29-1.33,1.43-3.01,2.86-4.16,4.42-.52-.49-.03-1.43-.77-1.3v-.52s.51-.26.51-.26l-.74.19-.08-.39-.47.2c.19-.85.88-1.13.26-2.08,1.54.69,1.49-1.99.78-1.3l-.26.52c.13-.69-1.19-3.75-1.04-3.9.05-.05,1.39.1.78-.78,3.91-2.48,7.82-3.21,12.47-2.86ZM118.76,151.88v-.52h-.25v.52h.25Z"/>
      <path class="cls-1" d="M126.3,183.85c.78.69,3.02,2.1,3.38,2.6.32.45.75,1.5.27,1.95l1.29.26-1.55,2.6c.6-.16,1.23-.06,1.81-.13.35-.04.69-.21,1.04-.26.46-.07.86-.18,1.3-.26.16-.03.36.03.52,0-1.81.91-4.13,1.17-6.13,1.05-.34-.02-.56-.26-.63-.27l.65-.26-2.47-.27.52-2.33h-1.04s.24-.67.24-.67l-.48-.12c-.34-.43,1.13-1.27,1.55-1.3-.48-.72-.58-1.41-1.55-1.16.37-.9.09-1.36,1.29-1.43Z"/>
      <path class="cls-17" d="M117.2,186.97c.21-.7-.88-.52-1.04-1.44-.18-1.04.35-1.65.55-2.6l-.55-.54.24-.6-.76-.42c.57-.85.95-3.2-.51-2.99-.02-.43.88-.1.52-.91-.16-.36-.83-.22-.78-.65,1.19-.29,1.91-.47,2.51.8l1.38-.28c.9.9,2.2,1.65,3.12,2.6-.23.57-.76-.84-1.56-.52-.09,1.08-1.75,1.9.51,1.94-.36.44-.36,1.13,0,1.57-2.1-.15-.31,1.31.27,2.08.44.58-.08,1.17,1.29.91l-.52.39v.39s.52,0,.52,0l-1.55,2.21,4.15,1.95c-2.91-.37-5.54-2.11-7.8-3.9Z"/>
      <path class="cls-28" d="M143.19,185.15c-.25.3-.54.52-.78.78-.13-.73.05-.76.65-1.03l.13.25Z"/>
      <path class="cls-19" d="M148.65,172.16c-.42-.14-.36-.82,0-1.04-.03.34.04.7,0,1.04Z"/>
      <path class="cls-19" d="M142.93,150.32l-.13.25c-.27-.2-.42-.43-.39-.77.15.16.32.28.52.52Z"/>
      <path class="cls-25" d="M115.64,147.46l.26.26c-.25.02-.58.12-.78.26.08-.28.38-.37.52-.52Z"/>
      <path class="cls-28" d="M141.89,186.45l.26-.26c-.09.09-.17.17-.26.26Z"/>
      <path class="cls-29" d="M109.41,28.92c3.65,1.03,6.97,5.29,8.36,8.66,1.17,2.82,1.53,6.01,2.04,8.9.08.47-.47.31-.53.55-.22.94.37,2.33-.26,3.21.87-7.32-5.42-19.76-14.1-18.39-3.37.53-6.69,5.15-6.69,8.39v5.85c.88.21.42-.99.58-1.63.91-3.64,4.27-6.94,8.08-4.57,4.39,2.73,5.69,12.7,2.77,16.85,2.07.84,3.97.66,5.98-.26-1.41,1.39-2.81,2.53-4.94,2.34,1.46,3.39-.6,1.04-1.89.2-2.83-1.84-5.45-3.25-8.76-4.1-1.52-.39-3.11-.69-4.68-.78-.26-.01-.52,0-.78,0-1.58-.02-3.27.4-4.68,0,1.82-.47,2.74-1.37,4.94-1.56.93-.08,1.92.06,2.86,0-1.48-1.73-2.12-4.03-2.34-6.24,0-.09.01-.17,0-.26-.02-.12-.14-.22-.26-.26-.26-2.08-.17-3.42,0-5.46.32-3.73,1.7-7.59,4.94-9.88,2.65-1.87,6.25-2.43,9.36-1.56ZM104.03,42.78c-1.59,1.74.09,5.14,2.19,4.15,2.23-1.05.01-6.56-2.19-4.15Z"/>
      <path class="cls-8" d="M119.02,50.24c-.28,2.31-1.75,4.64-3.38,6.24-2,.92-3.9,1.1-5.98.26,2.92-4.16,1.62-14.13-2.77-16.85-3.81-2.37-7.17.93-8.08,4.57-.16.64.3,1.84-.58,1.63v-5.85c0-3.23,3.32-7.86,6.69-8.39,8.68-1.36,14.97,11.08,14.1,18.39Z"/>
      <path class="cls-29" d="M150.98,51.8c.17,0,.35,0,.52,0s.35-.02.52,0c1.37.15,2.13.57,3.38,1.04.09.07.17.18.26.26l.52.26c1.35,1.48,2.25,3.49,2.6,5.46-.97-.73-1.79-1.72-2.86-2.34-1.66-.96-6.07-2.51-7.55-.92-.2.22-.16.5-.24.66-.75,1.39-.84,2.8-.78,4.42-.38.08-.21-.32-.52-.52-1.08-1.32-1.31-2.02-1.56-3.64-.02-.16.01-.35,0-.52l.52-2.08c1.65-1.75,2.89-2.09,5.2-2.08Z"/>
      <path class="cls-29" d="M176.97,49.46c1.19.28,2.87,4.1,2.21,3.9l-1.43-.78c-.02.43.02.87,0,1.3-.09,2.33.07,4.69,0,7.02l-2.34-3.64c-.85-2.05-2.74-8.81,1.56-7.8Z"/>
      <path class="cls-29" d="M150.39,57.83c1.88-.57,4.93,2.86,5.46,4.58s.83,2.88-1.33,2.63-4.87-3.13-4.96-5.3c-.03-.62.16-1.71.83-1.91Z"/>
      <path class="cls-12" d="M100.05,30.48c-.46-.32,1-1.02,1.12-1.09,2-.98,4-1.49,6.25-1.23l1.98.75c-3.11-.87-6.71-.31-9.36,1.56Z"/>
      <path class="cls-12" d="M155.92,56.48c-.25.55-.8.1-1.13-.04-2.2-.89-4.61-2.22-6.66-.22.09-.16.04-.44.24-.66,1.48-1.59,5.89-.04,7.55.92Z"/>
      <path class="cls-20" d="M93.03,96.51s.04.31-.26.26c-1.29-2.64-2.7-5.05-3.6-7.97-.1-.33-.6-.87-.04-1.13.99,3.08,2.42,5.97,3.9,8.84Z"/>
      <path class="cls-2" d="M89.92,54.14c1.41.4,3.1-.02,4.68,0,.14.79-.4.5-.9.52-1.63.06-3.35.28-4.82-.26-.04-.51.72-.17,1.04-.26Z"/>
      <path class="cls-2" d="M95.37,46.34c.22,2.21.86,4.51,2.34,6.24-.94.06-1.93-.08-2.86,0-.17-1.18,1.56.08,1.57-.92.01-.93-.73-1.76-.98-2.67-.21-.75-.48-1.89-.6-2.65h.52Z"/>
      <path class="cls-12" d="M95.11,40.36c-.17,2.03-.26,3.38,0,5.46.02.12.13.23.26.26.01.09,0,.17,0,.26h-.52c-.24-1.61-.32-3.44-.26-5.08.02-.5-.27-1.04.52-.9Z"/>
      <path class="cls-2" d="M100.05,54.92c-1.17.96-1.27.09-1.5.02-.77-.23-1.5-.21-2.28-.29-.49-.05-1.05.31-.91-.51,1.57.09,3.16.39,4.68.78Z"/>
      <path class="cls-12" d="M155.4,52.84c-1.25-.47-2.01-.89-3.38-1.04.55-.58,2.3.08,2.85.41.34.2.41.54.53.63Z"/>
      <path class="cls-12" d="M145.27,55.96c0-.08-.35-.33-.27-.88.08-.5.46-.86.79-1.2l-.52,2.08Z"/>
      <path class="cls-12" d="M145.27,56.48c.25,1.62.48,2.32,1.56,3.64-.82-.53-1.04-.82-1.6-2.17-.12-.28-.97-1.7.04-1.47Z"/>
      <path class="cls-12" d="M150.98,51.8l.13-.52h.39s0,.52,0,.52c-.17,0-.35,0-.52,0Z"/>
      <path class="cls-12" d="M156.18,53.36l-.52-.26s.27-.01.52.26Z"/>
      <path class="cls-27" d="M43.4,232.46c-3.36,2.51-6.62,4.9-10.91,2.6-.13-.17-.35-.39-.52-.52-.91-2.65-.83-5.29-.78-8.06,3.66,2.43,8.08,4.49,12.21,5.98Z"/>
      <path class="cls-20" d="M5.2,189.57c-.32-1.45-.7-2.92-.78-4.42-.03-.62-.18-1.67.26-2.08.05.81-.07,1.63.03,2.44.16,1.28,1.03,2.89.49,4.06Z"/>
      <path class="cls-16" d="M152.8,96.51l-.12.52-2.22-.78-1.3-3.64,1.64.03c.74.2,1.1,3.29,1.99,3.86Z"/>
      <path class="cls-16" d="M132.27,118.61c4.3.1,8.53-.47,12.69-1.48.82-.2,1.9-.78,2.52-.86.51-.07.41.1.38.51-.25-.09-.47.25-.52.26-.06.01-.36-.2-.72-.08-1.03.33-2.66.96-3.38,1.11-3.81.79-7.2.84-10.98.54Z"/>
      <path class="cls-20" d="M191.39,278.74c.17.09.17.17,0,.26v-.26Z"/>
      <path class="cls-20" d="M191.39,279.26c.17.09.17.17,0,.26v-.26Z"/>
      <path class="cls-14" d="M55.87,249.88s-.11-.31-.45-.46c-.26-.11-.7,0-.84-.08-.03-.02.25-.35,0-.62-.39-.43-1.26-.77-1.79-1.35-1.86-2.06-3.1-8.22-2.36-10.86.12-.44.24-.67.63-.93l1.29,8.06c.18.74,2.88,5.38,3.44,5.73.3.18.77.21,1.12.25.11.42-.93.3-1.04.26Z"/>
      <path class="cls-14" d="M31.97,234.54c.17.13.39.35.52.52.26.34,1.65,2.58.64,2.61s-3.22-3.11-2.85-4.16c.34.59,1.32.76,1.69,1.04Z"/>
      <polygon class="cls-14" points="33.52 239.22 33.65 238.18 34.3 238.84 34.3 239.22 33.52 239.22"/>
      <path class="cls-14" d="M50.94,234.8c.17.09.3.29.52.26v.25s-.78,0-.78,0v-.78c.1.03.18.21.26.26Z"/>
      <path class="cls-8" d="M135.13,152.4c2.11,1.87,4.39,3.6,5.98,5.98.82,1.23,1.74,3.06,2.34,4.42.65,3.33.19,6.42-.78,9.62-.67.1-.4-.06-.54-.37-1.14-2.53-2.05-4.92-3.35-7.43-.25-.48-.55-.88-.78-1.3-2.91-5.32-6.23-10.5-9.35-15.73l.38-.38c1.95,1.83,4.12,3.43,6.11,5.2Z"/>
      <path class="cls-8" d="M139.03,168c.75,1.71,2.22,4.26,2.09,6.1-.17,2.36-2.18,4.03-3.39,5.85-.79.6-1.54,1.34-2.21,2.08-1.06,1.15-1.74,2.26-2.98,3.12-.37.26-1.1.39-1.43,1.04-.2.04-.16-.24-.12-.38.61-2.43,2.58-5.34,3.11-7.93v-.26c.45-.28.53-.81.52-1.3.32-.86.94-1.74,1.3-2.73.63-1.7,1.41-5.65,2.2-6.89.07-.11.31-.34.39-.26-.05.61.3,1.05.52,1.56Z"/>
      <path class="cls-8" d="M127.08,147.2c-2.32,6.45-4.83,12.83-7.28,19.24-.05.13.05.39,0,.52-.63.14-.54-.32-.73-.68-2.31-4.3-3.2-6.72-.05-11.01,1.14-1.56,2.83-2.99,4.16-4.42.81-.87,3.22-2.97,3.64-3.9.1.08.18.17.26.26Z"/>
      <path class="cls-17" d="M127.08,149.8c-.3.26-.66.18-.86.58-.73,1.45-1.15,3.62-1.73,5.14-.4,1.04-1.03,2.1-1.43,3.12-.54,1.43-.99,2.95-1.43,4.42-.57.8-.54.96-.26,2.08-.09,0-.17,0-.26,0-1.1.08,0,1.24-1.3,1.3,2.44-6.4,4.95-12.79,7.28-19.24.56.64-.41,1.35,0,2.6Z"/>
      <path class="cls-19" d="M137.99,163.32c-.02,1.96-1.45.55-1.3-.65.08-.64,1.17-.23.52.65h.78Z"/>
      <path class="cls-9" d="M127.08,149.8s.5.22.25.51c-.09.1-.61-.19-.5.27h1.04c.08.7.02.67-.52.91l1.04.39c-1.16.78-.9,1.23,0,2.21l-.51.64,1.3.53v.52c-.55-.31-.49,2.18-.46,2.67.05.67.88,1.45.2,2.53l.78-.52c.25,1-.44,1.21-1.05,1.72-.05.54,1.25,2.09.53,2.69-.06.05-.37-.04-.52,0-.07.54-.02.59.52.52v-.52c1.13-.88.87,2.44,0,2.34v.25c.97-.12.3.71.38,1.17.05.3.39.55.42,1.05.04.6-.78.14-.55.9l1.3.27-.28.89.53.15-1.47,1.94c.03.51.85.88.93,1.11.52,1.48.35,2.57.53,3.81.08.53.65.87.71,1.35.07.54-.65,2.77-.45,2.96l.78-.17,2.07-5.03c-.53,2.6-2.51,5.5-3.11,7.93-.04.14-.08.42.12.38.33-.65,1.06-.78,1.43-1.04l1.04,2.47-.59.12c-.82.35.33.62.46.77.69.8.64,1.08.39,2.09-.44.08-.84.19-1.3.26l-1.04-.26v.52c-.59.07-1.22-.02-1.81.13l1.55-2.6-1.29-.26c.49-.45.06-1.51-.27-1.95.52-.16,0-.78-.13-1.04-.37-.78-.78-1.41-1.17-2.08-.69-1.29.66-1.41.26-2.86l-1.82-.26.55-.64-.57-2.57.8-.82c-.96-.23.37-1.47-1.3-1.7.29-.85,1.08-.76.77-1.88-.04-.16-.34-.18-.49-.4-.11-.15.03-.51-.02-.57s-1.51-.21,0-.52v.52c.99-.68-.17-1.28-.21-1.36-.11-.24.23-.5.15-.68-.02-.06-.46.05-.49-.42-.05-.87.67-2.21.77-3.15-.59-.52-1.5-.89-1.26-1.8h.52s-.77-.78-.77-.78c.98-.65.04-1.58.55-2.44l1-.16-1.11-1.75-1.22-3.58c.59-1.52,1-3.69,1.73-5.14.2-.4.57-.32.86-.58ZM126.69,157.6v.26c.17-.09.17-.17,0-.26ZM126.17,158.12v.26c.17-.09.17-.17,0-.26ZM126.55,164.88v-.52h-.25v.52h.25ZM127.21,169.82v.26c.17-.09.17-.17,0-.26ZM128.25,176.05v.26c.17-.09.17-.17,0-.26ZM129.74,182.29c0-.18-.14-.32-.32-.32s-.32.14-.32.32.14.32.32.32.32-.14.32-.32Z"/>
      <path class="cls-9" d="M134.09,177.61c-.05-.53.38-.94.52-1.3.01.49-.07,1.02-.52,1.3Z"/>
      <path class="cls-9" d="M130.58,169.04c.17.09.17.17,0,.26v-.26Z"/>
      <path class="cls-8" d="M115.9,162.28s.17.81.26,1.04c1.05,2.52,2.31,4.97,4.16,7.02,1.6,2.82,3.46,5.53,5.2,8.32.96,1.54,1.93,3.12,2.86,4.68.4.67.81,1.29,1.17,2.08.12.27.65.88.13,1.04-.36-.5-2.6-1.91-3.38-2.6-1.44-1.27-2.8-2.78-4.42-3.9-.92-.95-2.22-1.7-3.12-2.6-1.75-1.75-3.75-4.43-4.09-6.96-.26-1.95-.16-6.01.65-7.79.13-.27.23-.66.58-.33Z"/>
      <path class="cls-19" d="M145.14,178.13c.17.09.17.17,0,.26v-.26Z"/>
      <path class="cls-15" d="M121.1,165.14l1.81,1.97-.5.88c.57-.07.83.63.78,1.13-.04.38-1.2.62-1.3.96l1.27.41c-.87,1.48.46,1.82.54,2.1.12.44-.54,1.32-.41,1.91.15.69,1.14,1.73,1.55,2.37l.68,1.78c-1.73-2.79-3.6-5.5-5.2-8.32-.48-.85-.82-1.78-1.56-2.47v-.38c.49,0,.85-.04,1.04-.52.05-.13-.05-.39,0-.52,1.3-.06.2-1.22,1.3-1.3Z"/>
      <rect class="cls-25" x="113.83" y="154.22" width=".25" height=".78"/>
      <path class="cls-25" d="M114.73,158.38c.17.09.17.17,0,.26v-.26Z"/>
      <path class="cls-1" d="M124.35,183.85c.17.09.17.17,0,.26v-.26Z"/>
      <path class="cls-17" d="M122.01,188.27c.17.09.17.17,0,.26v-.26Z"/>
      <path class="cls-9" d="M134.09,185.15v.78s-.78,0-.78,0c-.08-.47.29-.86.78-.78Z"/>
      <rect class="cls-17" x="118.5" y="151.36" width=".25" height=".52"/>
      <path class="cls-9" d="M126.56,143.3l.13,1.3c.49-.22.82-.38,1.17.13-.99.28-.74,1.53-1.04,2.21-.41.93-2.83,3.03-3.64,3.9-.96-.05-.99-.39-1.32-1.29l-.76.25-.26-1.17c1.33.26.76-.41,1.05-.97.17-.34.65-.01.51-.58l-.78-.13.52-1.81c-.47-.15-1.23-.06-1.04-.78,1.88-.75,3.55-.8,5.46-1.04ZM122.27,147.72v.26c.17-.09.17-.17,0-.26Z"/>
      <path class="cls-28" d="M132.53,190.87c-.35.05-.69.22-1.04.26v-.52s1.04.26,1.04.26Z"/>
      <path class="cls-8" d="M104.03,42.78c2.21-2.42,4.42,3.1,2.19,4.15-2.1.99-3.78-2.41-2.19-4.15Z"/>
      <path class="cls-2" d="M95.37,46.08c-.13-.03-.24-.14-.26-.26.12.04.24.14.26.26Z"/>
      <path class="cls-1" d="M124.48,155.52l1.22,3.58,1.11,1.75-1,.16c-.51.86.43,1.79-.55,2.44l.77.78h-.52c-.24.91.67,1.27,1.26,1.8-.11.93-.83,2.27-.77,3.15.03.48.47.36.49.42.07.18-.27.44-.15.68.04.08,1.2.68.21,1.36v-.52c-1.51.31-.05.46,0,.52s-.09.42.02.57c.15.21.45.24.49.4.31,1.12-.48,1.03-.77,1.88,1.67.23.34,1.47,1.3,1.7l-.8.82.57,2.57-.55.64,1.82.26c.41,1.45-.95,1.57-.26,2.86-.93-1.56-1.9-3.14-2.86-4.68l-.68-1.78c-.4-.64-1.4-1.68-1.55-2.37-.13-.59.53-1.47.41-1.91-.08-.29-1.41-.62-.54-2.1l-1.27-.41c.1-.33,1.26-.57,1.3-.96.05-.49-.21-1.2-.78-1.13l.5-.88-1.81-1.97c.09,0,.17,0,.26,0,.57-.02,1.54.2,1.56-.65,0-.21-.95-.26-.78-.77l.78-.39-.91-.78c-.08-.04-.28.36-.39.52.45-1.46.89-2.99,1.43-4.42.39-1.03,1.02-2.09,1.43-3.12ZM123.31,164.36v.26c.17-.09.17-.17,0-.26Z"/>
      <circle class="cls-1" cx="129.42" cy="182.29" r=".32"/>
      <rect class="cls-1" x="126.3" y="164.36" width=".25" height=".52"/>
      <path class="cls-1" d="M128.25,176.05c.17.09.17.17,0,.26v-.26Z"/>
      <path class="cls-1" d="M127.21,169.82c.17.09.17.17,0,.26v-.26Z"/>
      <path class="cls-1" d="M126.17,158.12c.17.09.17.17,0,.26v-.26Z"/>
      <path class="cls-15" d="M122.27,147.72c.17.09.17.17,0,.26v-.26Z"/>
      <path class="cls-15" d="M121.62,163.06c.11-.15.3-.56.39-.52l.91.78-.78.39c-.16.51.79.56.78.77-.02.85-.99.63-1.56.65-.28-1.12-.31-1.28.26-2.08Z"/>
      <path class="cls-15" d="M123.31,164.36c.17.09.17.17,0,.26v-.26Z"/>
    </g>
  </g>
</svg>
